<svg width="162" height="46" viewBox="0 0 162 46" fill="none" xmlns="http://www.w3.org/2000/svg">
<path d="M58.6266 10.4485V17.6765H55.1855V6.86536H65.502V10.476L58.6266 10.4485ZM65.4759 21.3078V24.9183H55.1855V21.3078H65.4759Z" fill="#161616"/>
<path d="M82.7207 6.86536H86.1618V14.0659H89.6223V6.86536H93.0567V17.6765H82.7207V6.86536ZM89.6223 21.3078V24.9183H86.1879V21.3078H89.6223Z" fill="#161616"/>
<path d="M103.36 17.6765V10.4485H96.4844V6.86536H106.801V17.6765H103.36ZM99.9253 14.0659V24.9046H96.4844V14.0659H99.9253Z" fill="#161616"/>
<path d="M110.254 10.4485V6.86536H120.564V10.476L110.254 10.4485ZM113.688 24.8908V14.0659H117.129V24.9046L113.688 24.8908Z" fill="#161616"/>
<path d="M134.329 24.904H130.895V17.6758H127.454V24.904H124.02V14.0653H134.329V24.904Z" fill="#161616"/>
<path d="M130.886 6.83813H127.451V10.4556H130.886V6.83813Z" fill="#161616"/>
<path d="M79.2666 17.6766H75.832V24.9046H79.2666V17.6766Z" fill="#161616"/>
<path d="M144.659 17.6765V10.4485H137.783V6.86536H148.099V17.6765H144.659ZM141.224 14.0659V24.9046H137.783V14.0659H141.224Z" fill="#161616"/>
<path d="M75.8325 14.0659V10.4485H68.957V6.86536H79.2669V14.0659H75.8325ZM72.3914 14.0659V24.9046H68.957V14.0659H72.3914Z" fill="#161616"/>
<path d="M151.555 10.4485V6.86536H161.864V10.476L151.555 10.4485ZM151.555 17.6559V14.0384H161.864V17.6559H151.555ZM151.555 24.9046V21.3078H161.864V24.9183L151.555 24.9046Z" fill="#161616"/>
<path d="M69.6062 33.2195H68.6641V42.9302H69.6062V33.2195Z" fill="#191312"/>
<path d="M55.2324 34.2097H57.4697V35.5714H55.2324V36.5618H57.4697V45.2892H58.4183V36.5618H60.6556V35.5714H58.4183V34.2097H60.6556V33.2195H55.2324V34.2097Z" fill="#191312"/>
<path d="M60.6549 37.9303H59.7129V45.2891H60.6549V37.9303Z" fill="#191312"/>
<path d="M56.1744 37.9303H55.2324V45.2891H56.1744V37.9303Z" fill="#191312"/>
<path d="M62.8912 35.5709H61.9492V45.2817H62.8912V35.5709Z" fill="#191312"/>
<path d="M65.1295 35.5709H64.1875V45.2885H69.604V44.2913H65.1295V35.5709Z" fill="#191312"/>
<path d="M66.4239 42.9302H67.3659V33.2195H61.9492V34.2097H66.4239V42.9302Z" fill="#191312"/>
<path d="M90.8652 41.2526H100.37V37.9241H90.8652V41.2526ZM91.8072 38.8938H99.435V40.2693H91.8072V38.8938Z" fill="#191312"/>
<path d="M96.0922 32.4774H95.1435V33.2202H90.8652V34.2106H95.1435V35.5722H90.8652V36.5626H100.37V35.5722H96.0922V34.2106H100.37V33.2202H96.0922V32.4774Z" fill="#191312"/>
<path d="M99.4285 44.3125H96.0922V42.6345H90.8652V45.2754H91.8072V43.6799L95.1435 43.6867V45.2754H100.37V42.6345H99.4285V44.3125Z" fill="#191312"/>
<path d="M87.6074 36.8992H85.998V37.8894H87.6074V36.8992Z" fill="#191312"/>
<path d="M85.998 34.2097H88.6279V44.2575H85.998V45.2892H89.5699V33.2195H85.998V34.2097Z" fill="#191312"/>
<path d="M87.6074 40.5786H85.998V41.5689H87.6074V40.5786Z" fill="#191312"/>
<path d="M116.764 34.2097H119.007V35.5714H116.764V36.5618H119.001V45.2892H119.007H119.949V36.5618H122.187V35.5714H119.949V34.2097H122.187V33.2195H116.764V34.2097Z" fill="#191312"/>
<path d="M122.186 37.9303H121.244V45.2891H122.186V37.9303Z" fill="#191312"/>
<path d="M117.706 37.9303H116.764V45.2891H117.706V37.9303Z" fill="#191312"/>
<path d="M130.016 33.24H129.074V41.7197H123.494V42.71H129.074V45.2891H130.016V42.71H131.141V41.7197H130.016V33.24Z" fill="#191312"/>
<path d="M124.342 36.8997L123.676 37.5999L126.15 40.2016L126.817 39.5014L124.342 36.8997Z" fill="#191312"/>
<path d="M124.344 33.7177L123.678 34.4179L126.152 37.0196L126.819 36.3194L124.344 33.7177Z" fill="#191312"/>
<path d="M161.863 35.2V34.2096H157.577V33.24H156.635V34.2096H152.357V35.2H156.635V37.8134H152.357V38.8037H160.919V40.5506L157.107 42.2492L152.723 40.2892L152.357 41.2039L155.903 42.7857L152.357 44.3744L152.723 45.2891L157.107 43.329L161.496 45.2891L161.863 44.3744L158.317 42.7857L161.863 41.2039L161.856 41.1832H161.863V38.8037V38.0197V37.8134H157.577V35.2H161.863Z" fill="#191312"/>
<path d="M150.128 33.24H149.186V35.5713H147.576V36.5617H149.186V39.6015H147.576V40.5918H149.186V44.2918H147.576V45.2891H149.186H149.971H150.128V40.5918H151.089V39.6015H150.128V36.5617H151.089V35.5713H150.128V33.24Z" fill="#191312"/>
<path d="M58.6201 17.6766H55.1855V21.2872H58.6201V17.6766Z" fill="#727272"/>
<path d="M72.3914 10.4548H68.957V14.0654H72.3914V10.4548Z" fill="#727272"/>
<path d="M75.8252 14.0653H72.3906V17.6758H75.8252V14.0653Z" fill="#727272"/>
<path d="M89.5946 17.6832H86.1602V21.2938H89.5946V17.6832Z" fill="#727272"/>
<path d="M99.9188 10.4548H96.4844V14.0654H99.9188V10.4548Z" fill="#727272"/>
<path d="M117.124 10.4548H113.689V14.0654H117.124V10.4548Z" fill="#727272"/>
<path d="M127.454 10.4548H124.02V14.0654H127.454V10.4548Z" fill="#727272"/>
<path d="M134.335 10.4548H130.9V14.0654H134.335V10.4548Z" fill="#727272"/>
<path d="M141.218 10.4548H137.783V14.0654H141.218V10.4548Z" fill="#727272"/>
<path d="M103.36 14.0653H99.9258V17.6758H103.36V14.0653Z" fill="#727272"/>
<path d="M144.659 14.0653H141.225V17.6758H144.659V14.0653Z" fill="#727272"/>
<path d="M154.989 10.4486H151.555V14.0592H154.989V10.4486Z" fill="#727272"/>
<path d="M154.989 17.6832H151.555V21.2938H154.989V17.6832Z" fill="#727272"/>
<path d="M36.5243 45.805C36.3466 45.8067 36.1729 45.7509 36.0264 45.6451C35.8801 45.5392 35.7685 45.3884 35.7065 45.2135C35.1791 44.0373 34.5203 42.9316 33.744 41.9191C31.8992 39.2164 29.5965 35.8533 29.5704 31.6651C29.566 30.7732 29.7293 29.8891 30.0508 29.0638C30.3723 28.2383 30.8456 27.4878 31.4438 26.8553C32.0418 26.2226 32.7528 25.7205 33.536 25.3774C34.3192 25.0344 35.159 24.8575 36.0074 24.8565C36.861 24.8538 37.7068 25.028 38.4963 25.3691C39.2859 25.7103 40.0038 26.2116 40.6089 26.8445C41.214 27.4775 41.6944 28.2297 42.0229 29.0581C42.3514 29.8863 42.5213 30.7746 42.5231 31.6719V44.8902C42.5234 45.0104 42.5009 45.1293 42.4572 45.2403C42.4133 45.3514 42.349 45.452 42.2679 45.5367C42.1881 45.6229 42.0924 45.6912 41.9866 45.7373C41.881 45.7833 41.7675 45.8064 41.6529 45.805H36.5243Z" fill="#161616"/>
<path d="M5.81019 45.7149C5.5777 45.7149 5.35473 45.6179 5.19034 45.4451C5.02595 45.2722 4.93359 45.0379 4.93359 44.7934V23.7764C4.93705 21.1928 5.91478 18.7162 7.65244 16.8895C9.39009 15.0626 11.7459 14.0348 14.2033 14.0311H14.2883C15.5112 14.0445 16.7194 14.3125 17.8433 14.8196C18.967 15.3267 19.9841 16.063 20.8357 16.9857C21.6873 17.9085 22.3565 18.9995 22.8046 20.1957C23.2528 21.3919 23.4711 22.6698 23.4468 23.9551C23.4468 29.2231 23.4468 31.8572 21.1637 34.6769C20.5881 35.3647 19.8554 36.1005 19.1162 36.8639C16.9508 39.0371 14.5369 41.4923 14.0332 44.9172C14.0021 45.1354 13.8981 45.3349 13.7399 45.4798C13.5817 45.6248 13.3795 45.7056 13.1697 45.7081L5.81019 45.7149Z" fill="#161616"/>
<path d="M30.8967 26.2664C31.5873 25.5368 32.4115 24.9623 33.3196 24.5776C34.2277 24.193 35.2006 24.0062 36.1793 24.0288C37.158 24.0513 38.1222 24.2826 39.0134 24.7086C39.9045 25.1346 40.7041 25.7465 41.3637 26.5072C40.6403 24.9436 39.5727 23.5841 38.2496 22.5412C36.9265 21.4981 35.3859 20.8019 33.7555 20.5102C32.8836 20.4259 32.0496 20.0955 31.3416 19.5542C30.6993 18.9289 30.2254 18.1366 29.9678 17.2572C28.3844 13.0022 25.3007 9.55332 21.3589 7.62888C21.096 7.49397 20.8713 7.28903 20.7072 7.03442C20.543 6.77982 20.4452 6.48447 20.4234 6.17776C20.3372 4.79115 19.8373 3.46842 18.995 2.39752C18.1528 1.32663 17.0109 0.562075 15.7316 0.212525C14.4523 -0.137023 13.1008 -0.0537847 11.8691 0.45041C10.6374 0.954607 9.58822 1.8541 8.87064 3.02108C8.72088 3.27061 8.51323 3.47602 8.26719 3.61798C8.02116 3.75993 7.74482 3.83379 7.46417 3.83259H5.82218C5.62128 3.83 5.42685 3.90717 5.2777 4.04868C5.12853 4.19018 5.03564 4.38563 5.01754 4.59598C4.9604 5.46666 4.75429 6.31934 4.40915 7.11308C4.06626 7.88012 3.50351 8.51503 2.79988 8.92871L2.6625 9.02498C1.95151 9.5359 1.34819 10.1952 0.890127 10.962C0.432063 11.7287 0.129064 12.5863 0 13.4815C0.168325 13.577 0.308542 13.7192 0.40542 13.8925C0.502298 14.0659 0.552132 14.2639 0.549509 14.465C0.551411 14.6659 0.501275 14.8635 0.404472 15.0368C0.307671 15.21 0.167852 15.3523 0 15.4485C0.161695 16.598 0.610038 17.682 1.29945 18.5905C1.98886 19.4989 2.89476 20.1991 3.92507 20.6201C4.13313 20.7016 4.32259 20.8281 4.48112 20.9916C4.94739 19.1902 5.85887 17.5506 7.12296 16.2395C8.38705 14.9283 9.95872 13.9922 11.6783 13.5263C13.3979 13.0603 15.2042 13.0812 16.9137 13.5867C18.623 14.0922 20.1748 15.0643 21.4113 16.4044C22.3415 17.4021 23.0724 18.5854 23.5611 19.8845C24.05 21.1838 24.2864 22.5727 24.2568 23.9694C24.2568 29.2582 24.2568 32.1672 21.7841 35.2277C21.1822 35.9635 20.4758 36.6994 19.6777 37.4765C18.149 38.8673 16.8262 40.4898 15.7525 42.2906C16.1189 42.2906 16.4852 42.3457 16.8646 42.3457H31.9762C32.3389 42.346 32.7015 42.3254 33.0621 42.2837C31.2566 39.6429 28.8296 36.0391 28.8035 31.6377C28.7959 30.6412 28.9772 29.6529 29.3366 28.7308C29.696 27.8087 30.2263 26.9709 30.8967 26.2664Z" fill="#161616"/>
</svg>
