<svg width="141" height="50" viewBox="0 0 141 50" fill="none" xmlns="http://www.w3.org/2000/svg">
<mask id="mask0_6339_3837" style="mask-type:luminance" maskUnits="userSpaceOnUse" x="0" y="0" width="142" height="50">
<path d="M141.007 0H0V49.8137H141.007V0Z" fill="white"/>
</mask>
<g mask="url(#mask0_6339_3837)">
<path d="M22.3976 35.5755C32.1739 35.5755 40.1739 27.5755 40.1739 17.7867C40.1739 13.6997 38.9317 10.1345 36.6212 7.11583C38.7578 5.51334 40.1739 2.84252 40.1739 -0.00219727H22.3976C12.6211 -0.00219727 4.62109 7.99784 4.62109 17.7867C4.62109 27.5755 12.6211 35.5755 22.3976 35.5755ZM22.3976 8.18417C27.7267 8.18417 32.0001 12.4575 32.0001 17.7867C32.0001 23.1283 27.7391 27.3892 22.3976 27.3892C17.0559 27.3892 12.795 23.1283 12.795 17.7867C12.795 12.445 17.0683 8.18417 22.3976 8.18417Z" fill="black"/>
<path d="M45.1534 40.3826C44.0852 37.7118 41.9485 35.7615 39.1037 34.8672C34.4825 39.3144 28.4454 41.6249 22.582 41.6249C16.5322 41.6249 10.6689 39.3144 6.04774 34.8672C3.20302 35.7615 1.06637 37.7118 -0.00195312 40.3826C6.04774 46.6064 14.2217 49.8113 22.3956 49.8113C30.5819 49.8113 38.7559 46.6064 45.1534 40.3826Z" fill="black"/>
<path d="M139.7 6.37158H134.246C133.538 6.37158 132.967 6.94301 132.967 7.65108V13.7878C131.389 13.1169 129.662 12.7443 127.836 12.7443C120.594 12.7443 114.693 18.6325 114.693 25.8872V27.7009C114.693 34.9431 120.581 40.8438 127.836 40.8438C129.662 40.8438 131.401 40.471 132.992 39.7878C133.103 40.3842 133.625 40.8438 134.246 40.8438H139.7C140.408 40.8438 140.979 40.2723 140.979 39.5642V7.66351C140.979 6.95543 140.408 6.37158 139.7 6.37158ZM127.836 32.8313C125.004 32.8313 122.706 30.5331 122.706 27.7009V25.8872C122.706 23.0548 125.004 20.7566 127.836 20.7566C130.668 20.7566 132.967 23.0548 132.967 25.8872V27.7009C132.967 30.5331 130.668 32.8313 127.836 32.8313Z" fill="#121314"/>
<path d="M108.342 40.8349H102.889C102.181 40.8349 101.609 40.2634 101.609 39.5553V18.5615C101.609 17.8534 102.181 17.282 102.889 17.282H108.342C109.05 17.282 109.622 17.8534 109.622 18.5615V39.5678C109.622 40.2634 109.05 40.8349 108.342 40.8349Z" fill="#121314"/>
<path d="M82.0941 6.37158H76.6407C75.9326 6.37158 75.3611 6.94301 75.3611 7.65108V13.7878C73.7835 13.1169 72.0567 12.7443 70.2308 12.7443C62.9884 12.7443 57.0879 18.6325 57.0879 25.8872V27.7009C57.0879 34.9431 62.9762 40.8438 70.2308 40.8438C72.0567 40.8438 73.7959 40.471 75.3861 39.7878C75.4977 40.3842 76.0196 40.8438 76.6407 40.8438H82.0941C82.8022 40.8438 83.3737 40.2723 83.3737 39.5642V27.7009V25.8872V7.66351C83.3737 6.95543 82.8022 6.37158 82.0941 6.37158ZM70.2308 32.8313C67.3984 32.8313 65.1002 30.5331 65.1002 27.7009V25.8872C65.1002 23.0548 67.3984 20.7566 70.2308 20.7566C73.0631 20.7566 75.3611 23.0548 75.3611 25.8872V27.7009C75.3611 30.5331 73.0631 32.8313 70.2308 32.8313Z" fill="#121314"/>
<path d="M95.231 40.8316H89.7776C89.0695 40.8316 88.498 40.2601 88.498 39.552V34.0987C88.498 33.3906 89.0695 32.8191 89.7776 32.8191H95.231C95.9391 32.8191 96.5104 33.3906 96.5104 34.0987V39.552C96.5104 40.2601 95.9391 40.8316 95.231 40.8316Z" fill="#121314"/>
<path d="M108.342 14.3874H102.889C102.181 14.3874 101.609 13.8159 101.609 13.1078V7.66685C101.609 6.95876 102.181 6.38733 102.889 6.38733H108.342C109.05 6.38733 109.622 6.95876 109.622 7.66685V13.1203C109.622 13.8159 109.05 14.3874 108.342 14.3874Z" fill="#121314"/>
</g>
</svg>
