<svg width="1655" height="1655" viewBox="0 0 1655 1655" fill="none" xmlns="http://www.w3.org/2000/svg">
<circle cx="827.5" cy="827.5" r="827.5" fill="#18181B"/>
<path d="M246.877 740.867C246.877 857.332 226.664 972.834 227.626 1089.3C219.926 1104.7 203.564 1112.4 187.201 1119.14C168.913 1119.14 144.85 1109.51 141 1089.3V1070.05C141 991.121 148.7 914.12 156.4 836.156C158.325 815.944 161.213 755.305 164.1 740.867C167.95 726.43 189.126 721.617 200.676 714.879C204.526 713.917 208.376 713.917 211.264 713.917C228.589 713.917 246.877 721.617 246.877 740.867ZM326.766 573.389C326.766 591.677 321.953 599.377 310.403 611.89C287.302 636.916 269.977 645.578 234.364 645.578C221.851 645.578 209.339 643.653 197.788 641.728C181.426 630.178 147.738 611.89 147.738 588.79C147.738 539.701 197.788 482.913 247.839 482.913C300.778 482.913 326.766 523.339 326.766 573.389Z" fill="#BAC6B7"/>
<path d="M615.746 611.89C617.671 615.74 618.634 619.59 618.634 624.403C618.634 680.229 440.568 661.941 440.568 833.269C440.568 868.882 453.081 933.371 482.919 957.433C531.045 994.972 636.921 961.283 636.921 1015.18C636.921 1058.5 570.508 1063.31 539.707 1063.31C484.844 1063.31 415.543 1034.43 387.63 984.384C362.604 940.108 352.017 882.357 352.017 831.344C352.017 774.555 366.454 692.741 412.655 654.241C450.193 621.515 507.944 583.977 559.92 583.977C576.283 583.977 592.646 587.827 606.121 596.49C609.971 601.302 615.746 606.115 615.746 611.89Z" fill="#F88B08"/>
<path d="M780.923 596.49C780.923 615.74 783.81 634.028 786.698 653.278C831.936 622.478 877.174 584.94 912.788 542.589C924.338 530.076 937.813 525.264 954.176 525.264C977.276 525.264 992.676 532.001 992.676 557.989C992.676 595.527 934.925 637.878 912.788 667.716C916.638 699.479 941.663 756.268 956.101 787.068C967.651 813.056 982.089 838.081 993.639 864.069C1017.7 916.045 1038.88 968.984 1062.94 1020C1074.49 1043.1 1087.97 1064.27 1098.55 1086.41C1100.48 1089.3 1100.48 1095.07 1100.48 1097.96C1100.48 1117.21 1087 1135.5 1073.53 1148.01C1067.75 1149.94 1061.02 1150.9 1054.28 1150.9C1041.76 1150.9 1029.25 1148.01 1020.59 1139.35C998.451 1115.29 995.564 1079.67 982.089 1051.76C932.038 947.808 887.762 840.969 832.899 739.905C817.498 744.717 810.761 763.005 802.098 774.555C804.986 853.482 811.723 931.445 818.461 1009.41C821.349 1045.98 822.311 1083.52 827.124 1121.06C828.086 1130.69 830.011 1139.35 830.011 1148.97C830.011 1179.77 806.911 1200.95 778.035 1200.95C767.448 1200.95 751.085 1194.21 742.422 1188.44C735.685 1171.11 730.872 1152.82 730.872 1134.54C730.872 1127.8 732.797 1121.06 732.797 1114.32C732.797 1081.6 730.872 1048.87 728.947 1016.15C724.134 923.745 717.397 832.306 709.697 740.867C703.922 659.053 688.521 575.315 688.521 492.538C688.521 473.288 727.984 455 743.385 455C779.96 455 782.848 480.025 782.848 509.863C782.848 538.739 780.923 567.614 780.923 596.49Z" fill="#F88B08"/>
<path d="M1441.95 678.304C1441.95 744.717 1405.38 752.417 1399.6 772.63C1457.35 789.956 1514.14 843.856 1514.14 907.383C1514.14 956.471 1495.85 999.784 1457.35 1030.58C1400.57 1077.75 1315.86 1109.51 1240.79 1109.51C1220.57 1109.51 1199.4 1107.59 1178.22 1107.59C1176.3 1107.59 1167.64 1104.7 1165.71 1103.74C1144.54 1094.11 1138.76 1072.94 1138.76 1050.8C1138.76 1023.85 1145.5 997.859 1145.5 970.909C1145.5 898.72 1142.61 825.569 1142.61 752.417C1142.61 694.667 1146.46 635.953 1146.46 578.202C1146.46 546.439 1194.59 546.439 1216.72 546.439C1296.61 546.439 1395.75 550.289 1433.29 634.99C1439.07 648.466 1441.95 663.866 1441.95 678.304Z" fill="#F88B08"/>
<path d="M262.271 547.787C262.271 561.107 258.192 571.904 253.16 571.904C248.128 571.904 244.049 561.107 244.049 547.787C244.049 534.468 248.128 523.671 253.16 523.671C258.192 523.671 262.271 534.468 262.271 547.787Z" fill="#18181B"/>
<path d="M295.498 547.787C295.498 561.107 291.419 571.904 286.387 571.904C281.355 571.904 277.276 561.107 277.276 547.787C277.276 534.468 281.355 523.671 286.387 523.671C291.419 523.671 295.498 534.468 295.498 547.787Z" fill="#18181B"/>
<path fill-rule="evenodd" clip-rule="evenodd" d="M222.58 598.255C223.481 596.276 222.754 593.899 220.836 592.78C218.791 591.587 216.165 592.278 214.972 594.323C213.999 595.991 213.653 597.875 214.04 599.776C214.404 601.569 215.352 603.056 216.398 604.227C218.439 606.512 221.568 608.398 224.97 609.948C231.904 613.108 241.693 615.638 251.751 616.947C261.803 618.255 272.552 618.4 281.376 616.501C289.938 614.659 298.28 610.489 300.533 601.853C301.131 599.562 299.758 597.22 297.467 596.622C295.175 596.025 292.833 597.397 292.236 599.689C291.273 603.379 287.356 606.444 279.572 608.118C272.051 609.737 262.367 609.681 252.858 608.444C243.355 607.207 234.454 604.847 228.526 602.145C225.496 600.764 223.651 599.476 222.795 598.516C222.703 598.413 222.633 598.326 222.58 598.255Z" fill="black"/>
</svg>
