<svg width="153" height="45" viewBox="0 0 153 45" fill="none" xmlns="http://www.w3.org/2000/svg">
<path fill-rule="evenodd" clip-rule="evenodd" d="M107.236 6.35559C107.759 6.51026 108.194 6.74253 108.542 7.05205L112.054 2.06048C111.629 1.69285 111.096 1.35428 110.458 1.04477C109.916 0.773877 109.248 0.532041 108.455 0.31926C107.662 0.106307 106.724 0 105.64 0C104.247 0 102.942 0.270895 101.723 0.812506C100.523 1.33497 99.4789 2.06048 98.5885 2.9892C97.7185 3.89844 97.0315 4.97226 96.5273 6.21049C96.0248 7.44873 95.7736 8.76421 95.7736 10.1573C95.7736 11.589 96.0351 12.924 96.5563 14.1622C97.0981 15.4003 97.8245 16.4741 98.7337 17.3835C99.6618 18.2927 100.745 19.0087 101.984 19.531C103.222 20.0533 104.538 20.3146 105.931 20.3146C106.879 20.3146 107.797 20.1888 108.687 19.9372C109.578 19.6858 110.4 19.3277 111.154 18.8636C111.928 18.3992 112.625 17.8477 113.244 17.2093C113.863 16.5515 114.396 15.826 114.84 15.0328V8.59006H105.372L107.382 12.6531H109.123C108.735 13.1367 108.272 13.5237 107.73 13.8139C107.189 14.0848 106.589 14.2201 105.931 14.2201C105.37 14.2201 104.837 14.1234 104.334 13.9299C103.851 13.7171 103.425 13.4365 103.058 13.0884C102.69 12.7208 102.4 12.2854 102.188 11.7825C101.974 11.2793 101.868 10.7377 101.868 10.1573C101.868 9.57688 101.964 9.0351 102.159 8.53212C102.352 8.02913 102.613 7.6034 102.942 7.25526C103.29 6.88763 103.695 6.607 104.16 6.41353C104.625 6.20075 105.138 6.09427 105.698 6.09427C106.201 6.09427 106.713 6.18144 107.236 6.35559ZM56.8125 0.482481H61.9201L66.9698 7.91189L71.9904 0.482481H77.098V19.8394H70.9166V10.8014L66.9698 16.6057L62.9939 10.8014V19.8394H56.8125V0.482481ZM85.4054 0.482481H90.0488L97.3904 19.8394H91.2966L90.6583 18.0982H84.7959L84.1576 19.8394H78.0632L85.4054 0.482481ZM116.443 0.464361H123.003V19.8212H116.443V0.464361ZM57.6252 30.2449C57.0834 31.4831 56.8125 32.876 56.8125 34.424C56.8125 35.9329 57.0738 37.3163 57.5961 38.5738C58.1186 39.812 58.8441 40.8761 59.7726 41.7662C60.7014 42.6561 61.8041 43.3526 63.0811 43.8556C64.358 44.3394 65.751 44.5813 67.26 44.5813C68.3822 44.5813 69.3786 44.465 70.2492 44.2329C71.1198 44.0007 71.8646 43.7493 72.4838 43.4784C73.1996 43.1495 73.8188 42.7722 74.3411 42.3466L71.294 36.9777C71.0038 37.2679 70.6652 37.5195 70.2782 37.7322C69.9492 37.9257 69.543 38.0999 69.0593 38.2547C68.5757 38.4094 68.0243 38.4868 67.4051 38.4868C66.7861 38.4868 66.2152 38.3803 65.6929 38.1676C65.1706 37.9548 64.7158 37.6646 64.3289 37.2969C63.942 36.9293 63.6325 36.5038 63.4004 36.0201C63.1874 35.5171 63.0811 34.9849 63.0811 34.424C63.0811 33.8629 63.1874 33.3404 63.4004 32.8567C63.6131 32.3537 63.9033 31.9184 64.271 31.5508C64.6579 31.1832 65.1028 30.893 65.6059 30.6802C66.1089 30.4674 66.6603 30.3609 67.26 30.3609C67.8404 30.3609 68.3531 30.4384 68.7982 30.5932C69.2625 30.7286 69.659 30.8737 69.988 31.0285C70.3557 31.2413 70.6942 31.4638 71.0038 31.6959L74.0509 26.3272C73.5286 25.9595 72.9094 25.621 72.1936 25.3114C71.5744 25.0406 70.8296 24.7987 69.959 24.5859C69.1077 24.373 68.1306 24.2667 67.0279 24.2667C65.6348 24.2667 64.3193 24.5085 63.0811 24.9922C61.8429 25.4565 60.7595 26.1337 59.8308 27.0236C58.902 27.9135 58.167 28.9874 57.6252 30.2449ZM75.0741 24.731H81.3426V29.2001L84.9993 24.731H92.5737L85.7537 33.5822L92.922 44.0878H85.4635L81.3426 38.1096V44.0878H75.0741V24.731ZM101.07 24.731H93.4955V44.0878H101.39C102.473 44.0878 103.449 43.9523 104.321 43.6816C105.209 43.3914 105.955 42.985 106.555 42.4627C107.173 41.9209 107.648 41.2728 107.976 40.5182C108.306 39.7637 108.47 38.9221 108.47 37.9934C108.47 37.1809 108.344 36.494 108.093 35.9329C107.86 35.372 107.599 34.9076 107.31 34.54C106.961 34.1143 106.575 33.7661 106.148 33.4952C106.419 33.263 106.66 32.9728 106.874 32.6246C107.048 32.3344 107.213 31.9765 107.368 31.5508C107.522 31.1059 107.599 30.5737 107.599 29.9547C107.599 29.0841 107.435 28.3295 107.107 27.691C106.797 27.0333 106.351 26.4916 105.772 26.0658C105.209 25.621 104.524 25.292 103.711 25.0792C102.918 24.8471 102.037 24.731 101.07 24.731ZM115.141 24.731H119.783L127.125 44.0878H121.032L120.393 42.3466H114.531L113.892 44.0878H107.799L115.141 24.731ZM129.094 38.3998C128.631 38.3224 128.185 38.2159 127.759 38.0806V43.8846C128.224 44.0202 128.737 44.1362 129.297 44.2329C129.781 44.3297 130.333 44.4071 130.952 44.465C131.591 44.5425 132.278 44.5813 133.013 44.5813C134.232 44.5813 135.286 44.4167 136.176 44.0878C137.065 43.7783 137.792 43.3526 138.352 42.811C138.933 42.2499 139.359 41.6016 139.629 40.8666C139.901 40.112 140.036 39.3091 140.036 38.4578C140.036 37.6453 139.901 36.91 139.629 36.2522C139.378 35.5943 139.058 35.0044 138.672 34.4819C138.304 33.9596 137.887 33.4952 137.424 33.089C136.978 32.6826 136.563 32.3247 136.176 32.0152C135.983 31.8525 135.766 31.7014 135.566 31.5607C135.383 31.4341 135.216 31.3158 135.086 31.2057C134.984 31.11 134.893 31.0468 134.79 30.9749C134.643 30.8725 134.471 30.7522 134.201 30.4953C134.062 30.365 134.44 30.0494 134.556 29.9526C134.672 29.8559 134.932 29.7484 135.086 29.7098C135.095 29.7077 135.103 29.7057 135.11 29.7036L135.127 29.6994L135.137 29.6968C135.153 29.6925 135.168 29.6881 135.185 29.6838C135.3 29.6524 135.407 29.6226 135.544 29.6226C135.553 29.6216 135.561 29.6206 135.571 29.6195C135.582 29.6183 135.592 29.617 135.604 29.6156C135.626 29.6125 135.648 29.6096 135.671 29.6067V29.6066C135.775 29.5924 135.865 29.5802 136.029 29.5802C136.147 29.5802 136.223 29.576 136.289 29.5724C136.395 29.5666 136.474 29.5623 136.653 29.5802C136.944 29.6093 137.216 29.6691 137.366 29.7098C137.633 29.7817 137.884 29.9041 138.003 30.0707V24.6439C137.598 24.5859 137.181 24.5278 136.756 24.4697C136.388 24.4311 135.973 24.3923 135.508 24.3537C135.043 24.2956 134.58 24.2667 134.115 24.2667C133.225 24.2667 132.384 24.3923 131.591 24.6439C130.817 24.8761 130.14 25.2243 129.559 25.6886C128.979 26.153 128.523 26.7334 128.195 27.4299C127.867 28.1263 127.701 28.9292 127.701 29.8386C127.701 30.6511 127.838 31.3767 128.108 32.0152C128.38 32.6342 128.718 33.1953 129.123 33.6985C129.549 34.2014 129.995 34.6463 130.46 35.0332C130.943 35.4202 131.388 35.7782 131.794 36.1071C132.22 36.4166 132.567 36.7068 132.839 36.9777C133.109 37.2293 133.245 37.4807 133.245 37.7322C133.245 38.3901 132.799 38.7189 131.911 38.7189C131.406 38.7189 130.904 38.69 130.401 38.6319C129.918 38.5738 129.482 38.4965 129.094 38.3998ZM141.346 24.731H152.753V29.3859H147.528V32.2685H152.666V36.4629H147.528V39.3617H152.956V44.0878H141.346V24.731ZM87.5142 8.76472L89.8923 13.8339H85.1472L87.5142 8.76472ZM119.8 38.3229L117.423 33.2537L115.056 38.3229H119.8ZM101.834 38.0741C101.834 39.7751 100.217 40.1645 98.2227 40.1645V38.0741V35.9837C100.217 35.9837 101.834 36.373 101.834 38.0741ZM98.2227 32.0594C100.217 32.0594 101.834 31.6701 101.834 29.9691C101.834 28.268 100.217 27.8787 98.2227 27.8787V29.9691V32.0594Z" fill="black"/>
<path fill-rule="evenodd" clip-rule="evenodd" d="M12.5105 44.5777H26.1118L32.8936 33.6022L13.1931 0L0 22.9862L12.5105 44.5777ZM6.2832 33.6589H19.4945L25.9663 21.8355L19.4945 10.8658L6.2832 33.6589Z" fill="#333333"/>
<path fill-rule="evenodd" clip-rule="evenodd" d="M39.6064 0H26.0051L19.4766 10.8809L25.9412 21.8579L32.6742 10.8662H45.8857L32.8938 33.6593L31.0949 30.6089L39.3235 44.5813L52.7997 22.7141L39.6064 0Z" fill="#333333"/>
</svg>
