<svg width="163" height="62" viewBox="0 0 163 62" fill="none" xmlns="http://www.w3.org/2000/svg">
<path d="M0 61.6313V40.898L7.48943 33.4086H161.471V54.7202L154.56 61.6313H0Z" fill="black"/>
<path d="M139.312 53.8318V40.8762H142.514L147.289 48.8161H147.363V40.8762H150.473V53.8318H147.141L142.477 46.0955H142.403V53.8318H139.312Z" fill="white"/>
<path d="M128.676 54.017C124.844 54.017 122.42 51.2408 122.42 47.3542C122.42 43.449 124.844 40.7098 128.676 40.7098C132.507 40.7098 134.95 43.449 134.95 47.3542C134.95 51.2408 132.507 54.017 128.676 54.017ZM125.622 47.3542C125.622 49.6862 126.658 51.3334 128.676 51.3334C130.693 51.3334 131.729 49.6862 131.729 47.3542C131.729 45.0037 130.693 43.3935 128.676 43.3935C126.658 43.3935 125.622 45.0037 125.622 47.3542Z" fill="white"/>
<path d="M114.949 53.8318V40.8762H118.04V53.8318H114.949Z" fill="white"/>
<path d="M104.053 53.8318V43.6339H100.389V40.8762H110.846V43.6339H107.163V53.8318H104.053Z" fill="white"/>
<path d="M85.5293 53.8315L90.1378 40.876H94.154L98.7809 53.8315H95.5051L94.7647 51.6291H89.527L88.7867 53.8315H85.5293ZM90.2858 49.3341H94.0059L92.2477 44.0223H92.0626L90.2858 49.3341Z" fill="white"/>
<path d="M71.3145 53.8315V40.876H76.4041C80.4203 40.876 82.5302 43.1895 82.5302 47.3537C82.5302 51.518 80.4203 53.8315 76.4041 53.8315H71.3145ZM74.4053 51.1294H76.0895C78.5695 51.1294 79.3469 50.0374 79.3469 47.3537C79.3469 44.6701 78.5695 43.5781 76.0895 43.5781H74.4053V51.1294Z" fill="white"/>
<path d="M55.4141 53.8318V40.8762H58.6159L63.391 48.8161H63.465V40.8762H66.5743V53.8318H63.2429L58.5789 46.0955H58.5049V53.8318H55.4141Z" fill="white"/>
<path d="M45.3202 54.0168C42.0999 54.0168 39.8789 52.4066 39.8789 48.9087V40.8762H43.0067V48.668C43.0067 50.4263 43.8766 51.3147 45.3202 51.3147C46.7639 51.3147 47.5967 50.4263 47.5967 48.668V40.8762H50.7431V48.9087C50.7431 52.4066 48.4851 54.0168 45.3202 54.0168Z" fill="white"/>
<path d="M29.2303 54.0165C25.3991 54.0165 22.9746 51.2403 22.9746 47.3537C22.9746 43.4485 25.3991 40.7094 29.2303 40.7094C33.0614 40.7094 35.5045 43.4485 35.5045 47.3537C35.5045 51.2403 33.0614 54.0165 29.2303 54.0165ZM26.1765 47.3537C26.1765 49.6857 27.2129 51.3329 29.2303 51.3329C31.2476 51.3329 32.2841 49.6857 32.2841 47.3537C32.2841 45.0032 31.2476 43.393 29.2303 43.393C27.2129 43.393 26.1765 45.0032 26.1765 47.3537Z" fill="white"/>
<path d="M10.5195 53.8313V40.8757H19.1627V43.5779H13.6104V46.206H18.2188V48.7046H13.6104V53.8313H10.5195Z" fill="white"/>
<path d="M30.0488 25.6193V0.630127H51.6277V5.21597H35.6177V10.4642H51.6277V15.05H35.6177V21.0335H51.6277V25.6193H30.0488Z" fill="black"/>
<path d="M90.4319 25.6196L79.748 0.630371H85.9756L93.7379 20.0861L101.535 0.630371H107.551L96.8674 25.6196H90.4319Z" fill="black"/>
<path d="M156.299 7.66632C155.811 6.47469 155.08 5.61901 154.106 5.09292C153.129 4.57 151.774 4.30695 150.034 4.30695C148.058 4.30695 146.551 4.55098 145.511 5.04221C144.465 5.53027 143.942 6.24334 143.942 7.17509C143.942 8.10684 144.263 8.71532 144.9 9.13683C145.54 9.55516 146.703 9.89744 148.398 10.151L153.513 10.9591C156.551 11.4472 158.78 12.3029 160.195 13.5294C161.61 14.7558 162.319 16.4419 162.319 18.5874C162.319 21.015 161.291 22.8975 159.24 24.2381C157.185 25.5787 154.257 26.2506 150.453 26.2506C147.689 26.2506 145.401 25.9241 143.579 25.2713C141.758 24.6184 140.365 23.6264 139.4 22.2954C138.439 20.9643 137.866 19.2751 137.68 17.2215H143.283C143.516 18.8568 144.2 20.0516 145.338 20.809C146.476 21.5665 148.181 21.9468 150.453 21.9468C152.492 21.9468 154.033 21.671 155.061 21.1228C156.094 20.5777 156.611 19.7632 156.611 18.692C156.611 17.8268 156.268 17.1486 155.584 16.6637C154.9 16.1725 153.813 15.8207 152.328 15.6115L148.149 15.0157C144.761 14.5498 142.287 13.7037 140.721 12.4772C139.155 11.2539 138.373 9.53298 138.373 7.31453C138.373 5.82184 138.839 4.5288 139.766 3.43225C140.693 2.33571 142.045 1.48953 143.819 0.893717C145.593 0.297906 147.711 0 150.173 0C153.56 0 156.179 0.567288 158.036 1.6987C159.889 2.82693 161.109 4.60486 161.688 7.03247L156.293 7.66315L156.299 7.66632Z" fill="black"/>
<path d="M135.705 13.1237C135.705 15.7573 135.131 18.0645 133.984 20.0357C132.837 22.007 131.179 23.5346 129.008 24.6216C126.839 25.7055 124.258 26.2442 121.264 26.2442C118.27 26.2442 115.878 25.7277 113.732 24.6882C111.586 23.6518 109.912 22.1464 108.721 20.1752C107.527 18.2039 106.928 15.8524 106.928 13.1237C106.928 10.395 107.501 8.1829 108.655 6.21165C109.802 4.2404 111.46 2.71284 113.631 1.62581C115.793 0.541935 118.374 0 121.371 0C124.369 0 126.758 0.519751 128.904 1.55925C131.05 2.59558 132.717 4.10096 133.915 6.07221C135.109 8.04346 135.705 10.3918 135.705 13.1237ZM129.928 13.1237C129.928 10.4172 129.172 8.31601 127.665 6.82331C126.159 5.32744 124.035 4.58268 121.299 4.58268C118.563 4.58268 116.471 5.33378 114.964 6.83916C113.458 8.34136 112.705 10.4362 112.705 13.1205C112.705 15.8049 113.458 17.9282 114.964 19.4209C116.474 20.9136 118.598 21.6616 121.337 21.6616C124.076 21.6616 126.162 20.9105 127.668 19.4019C129.175 17.8965 129.931 15.8017 129.931 13.1205" fill="black"/>
<path d="M74.1808 25.6197L68.7507 16.2737H61.4768V25.6197H56.1191V0.630493H68.3347C75.2713 0.630493 78.7412 3.23241 78.7412 8.43625C78.7412 10.1128 78.3535 11.5167 77.5751 12.6355C76.7967 13.7574 75.6085 14.6321 74.0075 15.2596L80.2729 25.6197H74.184H74.1808ZM67.9155 11.9699C69.7466 11.9699 71.0986 11.6847 71.9684 11.1111C72.8383 10.5406 73.2732 9.63738 73.2732 8.40139C73.2732 7.1654 72.8635 6.27802 72.0409 5.74243C71.2184 5.20366 69.8663 4.94062 67.988 4.94062H61.4768V11.9731H67.9155V11.9699Z" fill="black"/>
<path d="M0 0.630371V25.6196H6.40085V12.0015H11.3079L0 0.630371Z" fill="black"/>
<path d="M18.6082 0.630127V14.245H13.7012L25.009 25.6193V0.630127H18.6082Z" fill="black"/>
</svg>
