<svg width="168" height="26" viewBox="0 0 168 26" fill="none" xmlns="http://www.w3.org/2000/svg">
<path d="M50.6833 0.00012207H20.5938V5.14111H50.6833V0.00012207Z" fill="black"/>
<path d="M50.6824 15.4232V10.2822H30.6227C29.2352 10.2822 28.1152 11.4304 28.1152 12.8527V23.1347C28.1152 24.557 29.2352 25.7052 30.6227 25.7052H50.6824V20.5642H33.6317C33.3475 20.5642 33.1302 20.3414 33.1302 20.0501V15.9373C33.1302 15.646 33.3475 15.4232 33.6317 15.4232H50.6824Z" fill="black"/>
<path d="M167.999 0H145.432V5.14098H167.999V0Z" fill="black"/>
<path d="M167.999 15.4231V10.2821H147.939C146.552 10.2821 145.432 11.4303 145.432 12.8526V23.1346C145.432 24.5569 146.552 25.7051 147.939 25.7051H167.999V20.5641H150.948C150.664 20.5641 150.447 20.3413 150.447 20.05V15.9372C150.447 15.6459 150.664 15.4231 150.948 15.4231H167.999Z" fill="black"/>
<path d="M20.5946 10.2821V19.4502C20.5946 19.9129 20.0597 20.1356 19.7421 19.81L0 0.00012207V25.705H5.01493V12.2357L16.9504 24.2142C17.9033 25.1738 19.1737 25.705 20.511 25.705C23.3194 25.705 25.6095 23.3745 25.6095 20.4784V10.2821H20.5946Z" fill="black"/>
<path d="M107.453 2.63916C106.718 1.02832 105.13 0.00012207 103.391 0.00012207C101.653 0.00012207 100.081 1.02832 99.3459 2.63916L91.9907 18.799C91.8068 19.1931 91.2552 19.1931 91.088 18.799L82.5292 0.00012207H76.9961L87.494 23.066C88.2295 24.6768 89.8009 25.705 91.5394 25.705C93.2779 25.705 94.8492 24.6768 95.5847 23.066L102.94 6.90618C103.124 6.51203 103.675 6.51203 103.843 6.90618L110.061 20.5641H103.391V25.705H117.935L107.453 2.63916Z" fill="black"/>
<path d="M77.262 25.705L72.364 14.9432C75.1223 13.8979 77.1115 11.2417 77.262 8.0886C77.4458 4.09577 74.5873 0.702723 70.8429 0.102942C70.5085 0.0343953 70.1575 0.00012207 69.7563 0.00012207C69.7396 0.00012207 53.207 0.00012207 53.207 0.00012207V5.14111H69.7563C71.1437 5.14111 72.2637 6.28926 72.2637 7.7116C72.2637 9.13394 71.1437 10.2821 69.7563 10.2821H55.7145C54.327 10.2821 53.207 11.4302 53.207 12.8526V25.705H58.222V15.4231H67.0649L71.7455 25.705H77.262Z" fill="black"/>
<path d="M137.593 0.102942C137.259 0.0343953 136.907 0.00012207 136.506 0.00012207C136.49 0.00012207 119.957 0.00012207 119.957 0.00012207V5.14111H136.506C137.894 5.14111 139.014 6.28926 139.014 7.7116C139.014 9.13394 137.894 10.2821 136.506 10.2821H122.464C121.077 10.2821 119.957 11.4302 119.957 12.8526V25.705H124.972V15.4231H136.506C136.623 15.4231 136.74 15.4231 136.857 15.4059C136.874 15.4059 136.891 15.4059 136.907 15.4059C136.974 15.4059 137.041 15.3888 137.125 15.3888C140.869 15.0803 143.845 11.9443 144.029 8.07147C144.196 4.07864 141.337 0.702723 137.593 0.102942Z" fill="black"/>
</svg>
