<svg width="198" height="34" viewBox="0 0 198 34" fill="none" xmlns="http://www.w3.org/2000/svg">
<path d="M20.3906 6.7229H27.1872V13.446H33.9837V20.1691H20.3906V6.7229Z" fill="#474747"/>
<path d="M6.79652 13.446H0V20.1692H6.79652V13.446Z" fill="#474747"/>
<path d="M13.5938 26.8928H20.3903V33.6159H13.5938V26.8928Z" fill="#474747"/>
<path d="M0 0H6.79652V6.72316H0V0Z" fill="#C0C0C0"/>
<path d="M6.79651 26.8927H20.3898V20.1695H13.5929V13.446H6.79641L6.79651 26.8927H0V33.6158H6.79651V26.8927Z" fill="#C0C0C0"/>
<path d="M33.9822 26.8928H27.1855V33.6159H33.9822V26.8928Z" fill="#C0C0C0"/>
<path d="M13.5938 13.4462H20.3903V0H13.5938V13.4462Z" fill="#C0C0C0"/>
<path d="M33.9822 0H27.1855V6.72316H33.9822V0Z" fill="#C0C0C0"/>
<path d="M167.453 25.0079L167.687 18.0531L160.656 18.2847V15.3616L167.687 15.5932L167.453 8.63843H170.408L170.174 15.5932L177.204 15.3616V18.2847L170.174 18.0531L170.408 25.0079H167.453Z" fill="black"/>
<path d="M187.816 25.0079L188.05 18.0531L181.02 18.2847V15.3616L188.05 15.5932L187.816 8.63843H190.771L190.537 15.5932L197.568 15.3616V18.2847L190.537 18.0531L190.771 25.0079H187.816Z" fill="black"/>
<path fill-rule="evenodd" clip-rule="evenodd" d="M108.041 5.34912H111.883V15.5373C111.987 15.3625 112.095 15.1915 112.208 15.0247C113.074 13.7189 114.138 12.7057 115.399 11.9846C116.68 11.2636 118.098 10.9031 119.654 10.9031C121.289 10.9031 122.737 11.2734 123.998 12.0139C125.259 12.7349 126.244 13.7482 126.953 15.0539C127.662 16.3401 128.017 17.8504 128.017 19.5847C128.017 21.2996 127.662 22.8099 126.953 24.1156C126.244 25.4211 125.259 26.4443 123.998 27.1848C122.737 27.9059 121.289 28.2664 119.654 28.2664C118.098 28.2664 116.68 27.9059 115.399 27.1848C114.138 26.4638 113.074 25.4506 112.208 24.1448C112.145 24.0512 112.085 23.9567 112.025 23.8611C111.977 23.7834 111.929 23.7048 111.883 23.6255V27.8572H108.041V5.34912ZM124.116 19.5847C124.116 18.4739 123.88 17.4995 123.407 16.6617C122.954 15.8041 122.324 15.1416 121.516 14.6739C120.708 14.1867 119.782 13.9431 118.738 13.9431C117.694 13.9431 116.709 14.1867 115.783 14.6739C114.877 15.1416 114.079 15.8041 113.39 16.6617C112.7 17.4995 112.139 18.4739 111.705 19.5847C112.139 20.6955 112.7 21.6795 113.39 22.5371C114.079 23.375 114.877 24.0377 115.783 24.5248C116.709 24.9925 117.694 25.2265 118.738 25.2265C119.782 25.2265 120.708 24.9925 121.516 24.5248C122.324 24.0377 122.954 23.375 123.407 22.5371C123.88 21.6795 124.116 20.6955 124.116 19.5847Z" fill="black"/>
<path d="M135.054 5.34912H131.213V27.8572H135.054V5.34912Z" fill="black"/>
<path fill-rule="evenodd" clip-rule="evenodd" d="M143.051 27.1848C144.568 27.9059 146.302 28.2664 148.252 28.2664C149.769 28.2664 151.257 28.0423 152.715 27.5942C154.192 27.146 155.443 26.532 156.467 25.7526V23.0048C155.443 23.7259 154.261 24.291 152.921 24.7002C151.582 25.0899 150.272 25.2849 148.991 25.2849C147.573 25.2849 146.341 25.0511 145.297 24.5833C144.273 24.0961 143.475 23.4044 142.904 22.5079C142.609 22.0289 142.393 21.5028 142.256 20.9294H156.94C156.94 18.9027 156.566 17.1391 155.817 15.6386C155.069 14.1379 154.005 12.9785 152.626 12.1601C151.267 11.3221 149.651 10.9031 147.78 10.9031C145.908 10.9031 144.243 11.2734 142.786 12.0139C141.347 12.7349 140.215 13.7482 139.387 15.054C138.58 16.3401 138.176 17.8407 138.176 19.5556C138.176 21.2898 138.609 22.8099 139.476 24.1156C140.343 25.4211 141.534 26.4443 143.051 27.1848ZM142.195 18.0355C142.31 17.455 142.506 16.9288 142.786 16.457C143.258 15.6386 143.908 15.0052 144.736 14.557C145.583 14.1088 146.568 13.8847 147.691 13.8847C148.755 13.8847 149.671 14.0991 150.439 14.5278C151.227 14.9369 151.848 15.5314 152.301 16.3108C152.609 16.8194 152.829 17.3943 152.962 18.0355H142.195Z" fill="black"/>
<path fill-rule="evenodd" clip-rule="evenodd" d="M99.9494 23.7585L100.384 27.8572H104.343L103.457 19.5847L104.343 11.3124H100.384L99.9524 15.4025C99.9172 15.3465 99.8817 15.2908 99.8455 15.2357C99.8159 15.1904 99.786 15.1454 99.7558 15.1008L99.7038 15.0247C98.8371 13.7191 97.7633 12.7057 96.483 11.9846C95.2221 11.2636 93.8135 10.9031 92.2571 10.9031C90.622 10.9031 89.1742 11.2734 87.9133 12.0139C86.6524 12.7349 85.6676 13.7482 84.9582 15.054C84.2491 16.3401 83.8945 17.8504 83.8945 19.5847C83.8945 21.2996 84.2491 22.8099 84.9582 24.1156C85.6676 25.4211 86.6524 26.4443 87.9133 27.1848C89.1742 27.9059 90.622 28.2664 92.2571 28.2664C93.8135 28.2664 95.2221 27.9059 96.483 27.1848C97.7633 26.4638 98.8371 25.4506 99.7038 24.1448C99.788 24.018 99.8698 23.8893 99.9494 23.7585ZM88.4747 22.5371C88.0217 21.6795 87.7951 20.6955 87.7951 19.5847C87.7951 18.474 88.0217 17.4996 88.4747 16.6617C88.9477 15.8042 89.5879 15.1416 90.3955 14.674C91.2033 14.1867 92.1291 13.9432 93.1733 13.9432C94.237 13.9432 95.2221 14.1867 96.1282 14.674C97.0345 15.1416 97.8323 15.8042 98.5219 16.6617C99.231 17.4996 99.7924 18.474 100.206 19.5847C99.7924 20.6955 99.231 21.6795 98.5219 22.5371C97.8323 23.375 97.0345 24.0377 96.1282 24.5248C95.2221 24.9925 94.237 25.2265 93.1733 25.2265C92.1291 25.2265 91.2033 24.9925 90.3955 24.5248C89.5879 24.0377 88.9477 23.375 88.4747 22.5371Z" fill="black"/>
<path d="M67.0195 14.2355V12.5108L70.5951 11.6046L72.1907 6.98608H74.4366V11.3123H82.2083V14.2355H74.4366V21.397C74.4366 22.7806 74.7321 23.7551 75.323 24.3202C75.9339 24.8658 76.9188 25.1386 78.2781 25.1386C79.1449 25.1386 79.9133 25.0511 80.583 24.8755C81.2529 24.6807 81.8931 24.4079 82.5038 24.0571V27.1849C81.9916 27.4382 81.2626 27.6818 80.3171 27.9156C79.3913 28.1495 78.4357 28.2664 77.4506 28.2664C75.8155 28.2664 74.4957 28.0033 73.4909 27.4772C72.4863 26.9316 71.7475 26.191 71.2747 25.2557C70.8216 24.3007 70.5951 23.2093 70.5951 21.9817V14.2355H67.0195Z" fill="black"/>
<path d="M48.2331 20.7249H44.2734C44.3522 22.2255 44.8644 23.5408 45.8101 24.6711C46.7556 25.8015 48.0362 26.688 49.6516 27.3313C51.2865 27.9548 53.1679 28.2666 55.2957 28.2666C57.3839 28.2666 59.2061 27.984 60.7625 27.4188C62.3383 26.8342 63.5598 26.0158 64.4267 24.9634C65.2934 23.9112 65.7268 22.6834 65.7268 21.2803C65.7268 20.072 65.4805 19.088 64.9881 18.3279C64.4956 17.5485 63.6681 16.9345 62.5057 16.4864C61.3633 16.0187 59.7971 15.6484 57.8074 15.3756L52.9611 14.7033C51.3653 14.4889 50.2425 14.1771 49.5925 13.7678C48.962 13.3391 48.6468 12.735 48.6468 11.9555C48.6468 10.9421 49.1885 10.1432 50.2721 9.55851C51.3555 8.97389 52.8035 8.68163 54.6159 8.68163C55.8965 8.68163 57.0094 8.84725 57.9551 9.17853C58.9008 9.49033 59.6493 9.92879 60.2009 10.494C60.7721 11.059 61.1072 11.7314 61.2057 12.511H65.1654C65.0866 11.1078 64.5843 9.8899 63.6583 8.85698C62.7522 7.80473 61.5307 6.98618 59.994 6.40154C58.4574 5.81692 56.6942 5.52466 54.7045 5.52466C52.6951 5.52466 50.9418 5.79747 49.4446 6.34308C47.9475 6.86927 46.7851 7.62926 45.9576 8.62317C45.15 9.59752 44.7462 10.7571 44.7462 12.1017C44.7462 13.875 45.347 15.2489 46.5488 16.2233C47.77 17.1782 49.7203 17.831 52.3997 18.1818L57.1869 18.7956C58.9402 19.01 60.1516 19.3315 60.8216 19.7602C61.4913 20.1889 61.8262 20.8321 61.8262 21.6895C61.8262 22.7419 61.2451 23.5799 60.0827 24.2035C58.9205 24.8075 57.3445 25.1095 55.3548 25.1095C54.0151 25.1095 52.833 24.9342 51.8087 24.5834C50.7842 24.2132 49.9569 23.6968 49.3264 23.0341C48.7157 22.3716 48.3513 21.602 48.2331 20.7249Z" fill="black"/>
</svg>
