<svg viewBox="0 0 320 13" fill="none" xmlns="http://www.w3.org/2000/svg">
<path d="M320 3.17964V5.51854C319.763 5.84582 319.529 6.18036 319.292 6.51782C317.328 9.31636 315.297 12.2095 311.146 12.2095C306.995 12.2095 304.963 9.31636 303.001 6.51782C301.167 3.904 299.436 1.43564 296.031 1.43564C292.625 1.43564 290.893 3.904 289.06 6.51782C287.097 9.31636 285.068 12.2095 280.915 12.2095C276.762 12.2095 274.733 9.31636 272.769 6.51782C270.937 3.904 269.206 1.43564 265.801 1.43564C262.396 1.43564 260.663 3.904 258.831 6.51782C256.867 9.31636 254.838 12.2095 250.685 12.2095C246.532 12.2095 244.503 9.31636 242.54 6.51782C240.707 3.904 238.976 1.43564 235.571 1.43564C232.166 1.43564 230.433 3.904 228.601 6.51782C226.639 9.31636 224.608 12.2095 220.455 12.2095C216.303 12.2095 214.273 9.31636 212.311 6.51782C210.479 3.904 208.746 1.43564 205.341 1.43564C201.936 1.43564 200.205 3.904 198.372 6.51782C196.409 9.31636 194.378 12.2095 190.227 12.2095C186.076 12.2095 184.045 9.31636 182.081 6.51782C180.249 3.904 178.518 1.43564 175.113 1.43564C171.708 1.43564 169.975 3.904 168.143 6.51782C166.179 9.31636 164.15 12.2095 159.997 12.2095C155.844 12.2095 153.815 9.31636 151.852 6.51782C150.019 3.904 148.288 1.43564 144.883 1.43564C141.478 1.43564 139.745 3.904 137.913 6.51782C135.951 9.31636 133.92 12.2095 129.767 12.2095C125.615 12.2095 123.585 9.31636 121.623 6.51782C119.791 3.904 118.058 1.43564 114.653 1.43564C111.248 1.43564 109.517 3.904 107.684 6.51782C105.721 9.31636 103.692 12.2095 99.5389 12.2095C95.3862 12.2095 93.3571 9.31636 91.3935 6.51782C89.5607 3.904 87.8298 1.43564 84.4247 1.43564C81.0196 1.43564 79.2873 3.904 77.4545 6.51782C75.4924 9.31636 73.4618 12.2095 69.3105 12.2095C65.1593 12.2095 63.1273 9.31636 61.1651 6.51782C59.3324 3.904 57.6 1.43564 54.1949 1.43564C50.7898 1.43564 49.0589 3.904 47.2262 6.51782C45.2625 9.31636 43.2335 12.2095 39.0807 12.2095C34.928 12.2095 32.8989 9.31636 30.9367 6.51782C29.104 3.904 27.3716 1.43564 23.9665 1.43564C20.5615 1.43564 18.8305 3.904 16.9978 6.51782C15.0342 9.31636 13.0051 12.2095 8.85236 12.2095C4.69964 12.2095 2.67055 9.31636 0.708364 6.51782C0.471273 6.18036 0.237091 5.84582 0 5.51854V3.17964C0.673455 3.96945 1.28145 4.83491 1.88364 5.69309C3.71636 8.30545 5.44727 10.7738 8.85236 10.7738C12.2575 10.7738 13.9898 8.30545 15.8225 5.69309C17.7847 2.89454 19.8153 0 23.9665 0C28.1178 0 30.1484 2.89454 32.112 5.69309C33.9447 8.30545 35.6756 10.7738 39.0807 10.7738C42.4858 10.7738 44.2182 8.30545 46.0509 5.69309C48.0131 2.89454 50.0436 0 54.1949 0C58.3462 0 60.3767 2.89454 62.3404 5.69309C64.1731 8.30545 65.904 10.7738 69.3105 10.7738C72.7171 10.7738 74.4465 8.30545 76.2793 5.69309C78.2429 2.89454 80.272 0 84.4247 0C88.5774 0 90.6065 2.89454 92.5687 5.69309C94.4029 8.30545 96.1338 10.7738 99.5389 10.7738C102.944 10.7738 104.675 8.30545 106.509 5.69309C108.471 2.89454 110.502 0 114.653 0C118.804 0 120.835 2.89454 122.799 5.69309C124.631 8.30545 126.362 10.7738 129.767 10.7738C133.172 10.7738 134.905 8.30545 136.737 5.69309C138.701 2.89454 140.73 0 144.883 0C149.036 0 151.065 2.89454 153.028 5.69309C154.861 8.30545 156.592 10.7738 159.997 10.7738C163.402 10.7738 165.135 8.30545 166.967 5.69309C168.929 2.89454 170.96 0 175.113 0C179.265 0 181.295 2.89454 183.257 5.69309C185.091 8.30545 186.822 10.7738 190.227 10.7738C193.632 10.7738 195.363 8.30545 197.196 5.69309C199.159 2.89454 201.19 0 205.341 0C209.492 0 211.523 2.89454 213.487 5.69309C215.319 8.30545 217.05 10.7738 220.455 10.7738C223.86 10.7738 225.593 8.30545 227.425 5.69309C229.389 2.89454 231.418 0 235.571 0C239.724 0 241.753 2.89454 243.716 5.69309C245.549 8.30545 247.28 10.7738 250.685 10.7738C254.09 10.7738 255.823 8.30545 257.655 5.69309C259.617 2.89454 261.648 0 265.801 0C269.953 0 271.983 2.89454 273.945 5.69309C275.779 8.30545 277.51 10.7738 280.915 10.7738C284.32 10.7738 286.052 8.30545 287.885 5.69309C289.847 2.89454 291.878 0 296.031 0C300.183 0 302.212 2.89454 304.176 5.69309C306.009 8.30545 307.74 10.7738 311.146 10.7738C314.553 10.7738 316.282 8.30545 318.116 5.69309C318.719 4.83491 319.327 3.96945 320 3.17964Z" fill="currentColor"/>
</svg>
