<svg viewBox="0 0 230 48" fill="none" xmlns="http://www.w3.org/2000/svg">
<path d="M71.5036 27.2748V20.159C71.5036 19.5049 71.7701 18.9117 72.2013 18.4826C72.6326 18.0535 73.2286 17.7884 73.8861 17.7884H82.1316C82.5111 17.7884 82.8714 17.6682 83.1666 17.4604C83.4617 17.2525 83.7051 16.9397 83.8278 16.5716L88.5946 2.34203C88.7766 1.79658 88.6808 1.24158 88.3971 0.80865C88.0828 0.329945 87.5404 0 86.8983 0H78.7506C78.3672 0 78.0031 0.12206 77.706 0.335666C77.4089 0.549272 77.177 0.852516 77.0543 1.21679L72.0461 16.1654C71.8831 16.6498 71.5746 17.0541 71.1778 17.3402C70.7811 17.6263 70.2981 17.7884 69.7844 17.7884H61.3721C60.8776 17.7884 60.4311 17.59 60.1091 17.2677C59.7871 16.9454 59.5858 16.501 59.5858 16.0109V1.77941C59.5858 1.19963 59.306 0.682775 58.8728 0.358552C58.5738 0.133504 58.202 0 57.7976 0H49.4562C48.979 0 48.5439 0.186905 48.2238 0.490149C47.8826 0.814372 47.668 1.2721 47.668 1.7775V45.6525C47.668 46.0988 47.8328 46.505 48.105 46.8178C48.4327 47.1935 48.9157 47.4319 49.4562 47.4319H57.7976C58.2921 47.4319 58.7386 47.2336 59.0606 46.9113C59.3846 46.5889 59.5839 46.1446 59.5839 45.6544V31.4248C59.5839 31.0091 59.7276 30.6257 59.9691 30.3225C60.2969 29.9105 60.8029 29.6473 61.3721 29.6473H69.7844C70.2885 29.6473 70.7657 29.8056 71.1586 30.0822C71.5516 30.3587 71.8812 30.7783 72.0461 31.2704L77.0543 46.2189C77.1693 46.5603 77.3801 46.8502 77.6523 47.06C77.959 47.2984 78.3423 47.4357 78.7506 47.4357H86.8983C87.5078 47.4357 88.0291 47.1382 88.3492 46.6976C88.6693 46.2571 88.7881 45.6716 88.5946 45.0956L83.8278 30.866C83.6802 30.4255 83.3697 30.0707 82.9768 29.8609C82.7219 29.7255 82.4344 29.6492 82.1316 29.6492H73.8861C73.2286 29.6492 72.6326 29.3841 72.2013 28.955C71.7701 28.5259 71.5036 27.9328 71.5036 27.2786V27.2748Z" fill="#F55219"/>
<path d="M41.7115 10.0801V1.77995C41.7115 1.28789 41.5121 0.843514 41.1882 0.523105C40.8643 0.202697 40.4177 0.00244141 39.9252 0.00244141H13.7052C13.2318 0.00244141 12.8024 0.185532 12.4823 0.483054C12.1354 0.807277 11.9169 1.26882 11.9169 1.77995V9.48691C11.9169 10.1068 11.6773 10.6694 11.2883 11.0928C10.8532 11.5638 10.2283 11.8595 9.53451 11.8595H1.78926C1.3101 11.8595 0.875012 12.0464 0.554929 12.3515C0.213763 12.6757 0.00292969 13.1316 0.00292969 13.637V34.8373C0.00292969 35.0605 0.0450963 35.2779 0.12368 35.482C0.211846 35.7108 0.347929 35.9187 0.526179 36.0961L11.3956 46.9118C11.5528 47.0682 11.7368 47.194 11.938 47.2818C12.1642 47.3809 12.4095 47.4343 12.6606 47.4343H39.9252C40.4637 47.4343 40.9467 47.1978 41.2745 46.824C41.5486 46.5113 41.7134 46.1031 41.7134 45.6568V37.3567C41.7134 36.8208 41.4757 36.3402 41.0982 36.0141C40.7838 35.7432 40.3737 35.5792 39.9252 35.5792H13.7052C13.2528 35.5792 12.8388 35.4114 12.5245 35.1368C12.1527 34.8106 11.9169 34.3338 11.9169 33.8017V14.2358C11.9169 13.6103 12.1603 13.0419 12.5571 12.6185C12.9922 12.1551 13.6113 11.8652 14.2993 11.8652H39.9213C40.4081 11.8652 40.8471 11.6726 41.1691 11.3598C41.4911 11.047 41.7077 10.5855 41.7077 10.0877L41.7115 10.0801Z" fill="#F55219"/>
<path d="M134.664 10.0796V1.77946C134.664 1.2874 134.464 0.843025 134.14 0.522617C133.817 0.202208 133.37 0.00195312 132.877 0.00195312H106.659C106.165 0.00195312 105.718 0.200301 105.396 0.522617C105.074 0.844932 104.873 1.28931 104.873 1.77946V9.48642C104.873 10.133 104.612 10.7204 104.191 11.1476C103.757 11.5862 103.156 11.859 102.489 11.859H94.7434C94.2489 11.859 93.8023 12.0573 93.4803 12.3796C93.1583 12.702 92.957 13.1463 92.957 13.6365V34.8368C92.957 35.0733 93.005 35.3041 93.0931 35.5177C93.1813 35.7313 93.3135 35.9277 93.4803 36.0956L104.35 46.9113C104.516 47.0772 104.714 47.2088 104.93 47.2965C105.147 47.3843 105.377 47.4319 105.615 47.4319H132.879C133.374 47.4319 133.82 47.2336 134.142 46.9113C134.466 46.589 134.666 46.1446 134.666 45.6544V37.3543C134.666 36.8146 134.424 36.3302 134.041 36.004C133.728 35.737 133.322 35.5768 132.877 35.5768H106.659C106.165 35.5768 105.718 35.3785 105.396 35.0562C105.074 34.7338 104.873 34.2895 104.873 33.7993V14.2334C104.873 13.5793 105.139 12.9861 105.571 12.557C106.002 12.1279 106.598 11.8628 107.255 11.8628H132.877C133.347 11.8628 133.772 11.6835 134.093 11.3898C134.445 11.0656 134.666 10.6002 134.666 10.0853L134.664 10.0796Z" fill="#ACACBC"/>
<path d="M176.374 0H154.326C153.891 0 153.494 0.154483 153.184 0.410046C152.789 0.736176 152.538 1.22823 152.538 1.7775V9.48447C152.538 9.97653 152.388 10.4323 152.132 10.81C151.704 11.4412 150.978 11.8551 150.156 11.8551H142.41C141.92 11.8551 141.475 12.0516 141.151 12.372C140.825 12.6943 140.622 13.1406 140.622 13.6345V45.6525C140.622 46.1445 140.821 46.5889 141.145 46.9093C141.469 47.2297 141.916 47.43 142.408 47.43H168.626C169.121 47.43 169.568 47.2316 169.89 46.9093C170.214 46.587 170.413 46.1426 170.413 45.6525V37.9455C170.413 37.3066 170.666 36.7287 171.078 36.3015C171.511 35.8533 172.121 35.573 172.795 35.573H180.541C181.022 35.573 181.459 35.3841 181.781 35.0771C182.118 34.7529 182.329 34.299 182.329 33.7955V1.77941C182.329 1.28736 182.129 0.842979 181.806 0.522571C181.482 0.202162 181.035 0.00190719 180.542 0.00190719H176.372L176.374 0ZM168.03 35.5749H154.326C153.836 35.5749 153.391 35.3784 153.067 35.0599C152.741 34.7376 152.538 34.2913 152.538 33.7974V14.2315C152.538 13.5773 152.804 12.9842 153.236 12.555C153.667 12.1259 154.263 11.8608 154.92 11.8608H168.625C169.113 11.8608 169.556 12.0554 169.878 12.372C170.208 12.6943 170.411 13.1425 170.411 13.6402V33.2061C170.411 33.8412 170.16 34.4172 169.752 34.8425C169.318 35.2945 168.705 35.5768 168.027 35.5768L168.03 35.5749Z" fill="#ACACBC"/>
<path d="M217.343 0H201.996C201.502 0 201.055 0.198348 200.733 0.520664C200.411 0.84298 200.21 1.28736 200.21 1.7775V9.48448C200.21 10.0719 199.995 10.6078 199.641 11.0217C199.204 11.5328 198.552 11.8551 197.826 11.8551H190.08C189.586 11.8551 189.139 12.0535 188.817 12.3758C188.495 12.6981 188.294 13.1425 188.294 13.6326V45.6506C188.294 46.1427 188.493 46.587 188.817 46.9074C189.141 47.2278 189.588 47.4281 190.08 47.4281H198.422C198.916 47.4281 199.363 47.2298 199.685 46.9074C200.009 46.5851 200.208 46.1407 200.208 45.6506V14.2296C200.208 13.5296 200.513 12.8984 201 12.4654C201.421 12.0878 201.981 11.8589 202.592 11.8589H216.296C216.77 11.8589 217.201 12.042 217.521 12.3415C217.868 12.6657 218.085 13.1272 218.085 13.6383V45.6563C218.085 46.1064 218.253 46.5184 218.531 46.8331C218.859 47.203 219.338 47.4357 219.873 47.4357H228.214C228.709 47.4357 229.155 47.2374 229.477 46.9151C229.801 46.5928 230.001 46.1484 230.001 45.6582V12.5951C230.001 12.3586 229.953 12.1278 229.865 11.9142C229.776 11.7006 229.644 11.5042 229.477 11.3364L218.608 0.520664C218.411 0.324223 218.171 0.177369 217.91 0.0915453C217.73 0.0324223 217.538 0 217.345 0L217.343 0Z" fill="#ACACBC"/>
</svg>
