<svg width="268" height="185" viewBox="0 0 268 185" fill="none" xmlns="http://www.w3.org/2000/svg">
<g clip-path="url(#clip0_6305_3048)">
<path d="M41.9089 78.302H7.25583C3.64442 78.302 0.716797 81.2296 0.716797 84.841V178.032C0.716797 181.643 3.64442 184.571 7.25583 184.571H41.9089C45.5203 184.571 48.4479 181.643 48.4479 178.032V84.841C48.4479 81.2296 45.5203 78.302 41.9089 78.302Z" fill="#F55219"/>
<path d="M260.884 0H7.03904C3.42763 0 0.5 2.92763 0.5 6.53904V66.0622C0.5 69.6736 3.42763 72.6012 7.03904 72.6012H260.884C264.496 72.6012 267.423 69.6736 267.423 66.0622V6.53904C267.423 2.92763 264.496 0 260.884 0Z" fill="#F55219"/>
<path d="M86.9664 40.0981V32.5033C86.9664 31.8059 87.2479 31.1725 87.7086 30.7118C88.1693 30.2512 88.8027 29.9696 89.5001 29.9696H98.2594C98.6625 29.9696 99.0464 29.8417 99.3599 29.6177C99.6734 29.3938 99.9293 29.0611 100.064 28.6708L105.131 13.4749C105.323 12.8926 105.221 12.2976 104.92 11.8369C104.587 11.3251 104.011 10.9731 103.327 10.9731H94.6699C94.2604 10.9731 93.8765 11.1011 93.563 11.3314C93.2495 11.5618 93 11.8817 92.872 12.272L87.5487 28.2357C87.3759 28.754 87.0496 29.1826 86.6273 29.4898C86.205 29.7969 85.6932 29.9696 85.1493 29.9696H76.2109C75.6863 29.9696 75.2128 29.7585 74.8673 29.413C74.5218 29.0675 74.3106 28.594 74.3106 28.0693V12.8734C74.3106 12.2528 74.0163 11.7025 73.5556 11.357C73.2357 11.1203 72.839 10.9731 72.4103 10.9731H63.5487C63.0433 10.9731 62.5826 11.1715 62.2371 11.4978C61.8724 11.8433 61.6484 12.3296 61.6484 12.8734V59.7216C61.6484 60.1951 61.8212 60.6302 62.1091 60.9629C62.4546 61.366 62.9729 61.6155 63.5423 61.6155H72.4039C72.9286 61.6155 73.4021 61.4044 73.7476 61.0589C74.0931 60.7134 74.3042 60.2399 74.3042 59.7152V44.5193C74.3042 44.0714 74.4578 43.6683 74.7137 43.342C75.0592 42.9005 75.5967 42.619 76.2045 42.619H85.1429C85.6804 42.619 86.1858 42.7854 86.6017 43.0797C87.0176 43.374 87.3695 43.8219 87.5423 44.3466L92.8656 60.3103C92.9872 60.675 93.2111 60.9821 93.4991 61.206C93.8254 61.462 94.2349 61.6091 94.6635 61.6091H103.32C103.967 61.6091 104.523 61.2892 104.862 60.8221C105.201 60.355 105.329 59.728 105.125 59.1138L100.057 43.9179C99.8973 43.4444 99.571 43.0669 99.1551 42.843C98.8864 42.6958 98.5793 42.619 98.2594 42.619H89.5001C88.8027 42.619 88.1693 42.3375 87.7086 41.8768C87.2479 41.4161 86.9664 40.7827 86.9664 40.0853V40.0981Z" fill="black"/>
<path d="M55.3144 21.7414V12.8798C55.3144 12.3551 55.1033 11.8816 54.7578 11.5361C54.4123 11.1906 53.9388 10.9795 53.4142 10.9795H25.5625C25.057 10.9795 24.6027 11.1714 24.2636 11.4914C23.8925 11.8369 23.6622 12.3295 23.6622 12.8798V21.108C23.6622 21.767 23.4063 22.3684 22.9904 22.8227C22.5297 23.3282 21.8643 23.6417 21.1285 23.6417H12.9003C12.3884 23.6417 11.9277 23.84 11.5886 24.1663C11.2239 24.5118 11 24.9981 11 25.542V48.1791C11 48.4158 11.0448 48.6525 11.128 48.8637C11.2239 49.1068 11.3647 49.3308 11.5567 49.5163L23.1055 61.0652C23.2719 61.2316 23.4702 61.3659 23.6814 61.4619C23.9181 61.5707 24.1804 61.6219 24.4492 61.6219H53.4142C53.9836 61.6219 54.4955 61.3723 54.8474 60.9692C55.1353 60.6365 55.3144 60.2014 55.3144 59.7216V50.86C55.3144 50.2905 55.0585 49.7722 54.6618 49.4267C54.3291 49.1388 53.894 48.9597 53.4142 48.9597H25.5625C25.0826 48.9597 24.6411 48.7805 24.3084 48.4862C23.9117 48.1407 23.6622 47.6288 23.6622 47.0594V26.169C23.6622 25.5036 23.9181 24.8957 24.3404 24.4415C24.8011 23.9488 25.4601 23.6353 26.1895 23.6353H53.4142C53.9324 23.6353 54.3995 23.4305 54.7386 23.0978C55.0777 22.7651 55.308 22.2725 55.308 21.7414H55.3144Z" fill="black"/>
<path d="M154.072 21.7414V12.8798C154.072 12.3551 153.861 11.8816 153.516 11.5361C153.17 11.1906 152.697 10.9795 152.172 10.9795H124.32C123.796 10.9795 123.322 11.1906 122.977 11.5361C122.631 11.8816 122.42 12.3551 122.42 12.8798V21.108C122.42 21.799 122.145 22.426 121.697 22.8803C121.249 23.3346 120.596 23.6417 119.886 23.6417H111.658C111.133 23.6417 110.66 23.8528 110.314 24.1983C109.969 24.5438 109.758 25.0173 109.758 25.542V48.1791C109.758 48.4286 109.809 48.6781 109.905 48.9085C110.001 49.1388 110.142 49.3436 110.314 49.5227L121.863 61.0716C122.043 61.2507 122.254 61.3915 122.478 61.4811C122.702 61.5707 122.951 61.6282 123.207 61.6282H152.172C152.697 61.6282 153.17 61.4171 153.516 61.0716C153.861 60.7261 154.072 60.2526 154.072 59.728V50.8663C154.072 50.2905 153.816 49.7722 153.407 49.4267C153.074 49.1388 152.645 48.9725 152.172 48.9725H124.32C123.796 48.9725 123.322 48.7613 122.977 48.4158C122.631 48.0703 122.42 47.5968 122.42 47.0722V26.1818C122.42 25.4844 122.702 24.851 123.162 24.3903C123.623 23.9296 124.256 23.6481 124.954 23.6481H152.178C152.677 23.6481 153.132 23.4561 153.471 23.1426C153.848 22.7971 154.079 22.298 154.079 21.7478L154.072 21.7414Z" fill="black"/>
<path d="M198.385 10.9795H174.961C174.5 10.9795 174.078 11.1458 173.745 11.421C173.329 11.7665 173.061 12.2975 173.061 12.8798V21.108C173.061 21.6326 172.901 22.1189 172.626 22.522C172.171 23.1938 171.397 23.6353 170.527 23.6353H162.299C161.774 23.6353 161.307 23.8464 160.961 24.1855C160.616 24.5246 160.398 25.0045 160.398 25.5356V59.7216C160.398 60.2462 160.61 60.7197 160.955 61.0652C161.301 61.4107 161.774 61.6219 162.299 61.6219H190.15C190.675 61.6219 191.149 61.4107 191.494 61.0652C191.84 60.7197 192.051 60.2462 192.051 59.7216V51.4934C192.051 50.8152 192.319 50.1945 192.755 49.7403C193.215 49.2604 193.861 48.9661 194.578 48.9661H202.806C203.318 48.9661 203.779 48.7613 204.124 48.435C204.483 48.0895 204.706 47.6032 204.706 47.0658V12.8798C204.706 12.3551 204.495 11.8816 204.15 11.5361C203.804 11.1906 203.331 10.9795 202.806 10.9795H198.372H198.385ZM189.517 48.9661H174.955C174.43 48.9661 173.963 48.7549 173.617 48.4158C173.272 48.0767 173.054 47.5968 173.054 47.0658V26.1754C173.054 25.478 173.336 24.8446 173.796 24.3839C174.257 23.9232 174.891 23.6417 175.588 23.6417H190.15C190.669 23.6417 191.142 23.8528 191.481 24.1855C191.82 24.5182 192.051 25.0109 192.051 25.542V46.4323C192.051 47.1106 191.782 47.7248 191.353 48.1791C190.893 48.6653 190.24 48.9661 189.523 48.9661H189.517Z" fill="black"/>
<path d="M241.914 10.9795H225.611C225.086 10.9795 224.613 11.1906 224.267 11.5361C223.922 11.8816 223.71 12.3551 223.71 12.8798V21.108C223.71 21.735 223.48 22.3044 223.109 22.7523C222.642 23.2962 221.951 23.6417 221.183 23.6417H212.955C212.43 23.6417 211.957 23.8528 211.611 24.1983C211.266 24.5438 211.055 25.0173 211.055 25.542V59.728C211.055 60.2526 211.266 60.7261 211.611 61.0716C211.957 61.4171 212.43 61.6282 212.955 61.6282H221.817C222.341 61.6282 222.815 61.4171 223.16 61.0716C223.506 60.7261 223.717 60.2526 223.717 59.728V26.1754C223.717 25.4268 224.043 24.755 224.555 24.2943C225.003 23.8912 225.598 23.6481 226.244 23.6481H240.807C241.312 23.6481 241.766 23.8464 242.106 24.1663C242.477 24.5118 242.707 25.0045 242.707 25.5484V59.7344C242.707 60.2142 242.886 60.6557 243.18 60.9884C243.526 61.3851 244.038 61.6346 244.607 61.6346H253.469C253.994 61.6346 254.467 61.4235 254.812 61.078C255.158 60.7325 255.369 60.259 255.369 59.7344V24.4351C255.369 24.1855 255.318 23.936 255.222 23.7057C255.126 23.4753 254.985 23.2706 254.812 23.0914L243.264 11.5425C243.052 11.3314 242.797 11.1778 242.521 11.0819C242.329 11.0179 242.125 10.9859 241.92 10.9859L241.914 10.9795Z" fill="black"/>
<path d="M30.3792 168.287L20.801 157.737H18.7216L17.7554 158.703V163.45L18.7216 164.416H20.801V168.403H17.5187L14.3516 165.235V156.911L17.5187 153.744H21.9719L31.2302 164.148H31.5245V153.629H34.8644V168.281H30.3792V168.287Z" fill="black"/>
<path d="M31.4684 148.658H17.7569L14.3594 145.26V136.175L17.7569 132.777H31.4684L34.8658 136.175V145.26L31.4684 148.658ZM31.4684 138.049L30.1823 136.763H19.0493L17.7633 138.049V143.379L19.0493 144.665H30.1823L31.4684 143.379V138.049Z" fill="black"/>
<path d="M30.3343 128.202L20.7561 117.651H18.6767L17.7105 118.618V123.365L18.6767 124.331H20.7561V128.317H17.4738L14.3066 125.15V116.826L17.4738 113.659H21.927L31.1853 124.062H31.4796V113.544H34.8195V128.196H30.3343V128.202Z" fill="black"/>
<path d="M31.0061 99.9857V109.89H26.9944L14.3066 100.779V96.006H27.6087V93.5171H31.0061V96.006H34.8131V99.9921H31.0061V99.9857ZM27.7238 99.813H18.7598V99.9282L27.3143 105.994H27.7238V99.813Z" fill="black"/>
<path d="M260.955 78.302H60.875C57.2636 78.302 54.3359 81.2296 54.3359 84.841V178.032C54.3359 181.643 57.2636 184.571 60.875 184.571H260.955C264.567 184.571 267.494 181.643 267.494 178.032V84.841C267.494 81.2296 264.567 78.302 260.955 78.302Z" fill="#F55219"/>
<path d="M69.4277 110.268V97.5162L72.5501 94.3938H81.8276L84.8924 97.4586V100.363H81.2006V98.815L79.9273 97.5418H74.5016L73.1195 98.9238V108.854L74.5016 110.236H79.9273L81.2006 108.963V107.414H84.8924V110.319L81.8276 113.384H72.5501L69.4277 110.262V110.268Z" fill="black"/>
<path d="M88.291 110.268V97.5162L91.4134 94.3938H101.184L104.306 97.5162V110.268L101.184 113.39H91.4134L88.291 110.268ZM99.2257 110.236L100.608 108.854V98.9238L99.2257 97.5417H93.3648L91.9828 98.9238V108.854L93.3648 110.236H99.2257Z" fill="black"/>
<path d="M108.644 94.3938H112.06L117.704 106.659H117.755L123.424 94.3938H126.84V113.39H123.283V101.829H123.232L118.862 110.729H116.584L112.239 101.829H112.188V113.39H108.631V94.3938H108.644Z" fill="black"/>
<path d="M131.466 94.3938H134.883L140.526 106.659H140.577L146.246 94.3938H149.663V113.39H146.105V101.829H146.054L141.684 110.729H139.406L135.062 101.829H135.011V113.39H131.453V94.3938H131.466Z" fill="black"/>
<path d="M154.014 110.268V97.5162L157.136 94.3938H166.906L170.029 97.5162V110.268L166.906 113.39H157.136L154.014 110.268ZM164.948 110.236L166.33 108.854V98.9238L164.948 97.5417H159.088L157.705 98.9238V108.854L159.088 110.236H164.948Z" fill="black"/>
<path d="M174.367 94.3938H177.675L186.14 107.286H186.191V94.3938H189.749V113.39H186.441L177.976 100.53H177.925V113.39H174.367V94.3938Z" fill="black"/>
<path d="M69.7031 121.938H73.3949V129.891H76.2742L80.8617 121.938H85.0142L79.4541 131.408L85.4813 140.935H81.2456L76.255 133.039H73.4077V140.935H69.7159V121.938H69.7031Z" fill="black"/>
<path d="M88.4512 121.938H91.7591L100.224 134.831H100.275V121.938H103.833V140.935H100.525L92.0598 128.074H92.0086V140.935H88.4512V121.938Z" fill="black"/>
<path d="M108.184 137.812V125.061L111.306 121.938H121.076L124.198 125.061V137.812L121.076 140.935H111.306L108.184 137.812ZM119.118 137.787L120.5 136.405V126.475L119.118 125.093H113.257L111.875 126.475V136.405L113.257 137.787H119.118Z" fill="black"/>
<path d="M127.174 121.938H130.891L133.195 135.343H133.303L137.078 121.938H139.849L143.541 135.343H143.649L145.953 121.938H149.67L145.735 140.935H142.287L138.518 127.582H138.409L134.557 140.935H131.109L127.174 121.938Z" fill="black"/>
<path d="M153.201 121.938H156.893V137.812H166.388V140.935H153.201V121.938Z" fill="black"/>
<path d="M169.504 121.938H183.235V125.061H173.196V129.866H182.448V132.93H173.196V137.812H183.235V140.935H169.504V121.938Z" fill="black"/>
<path d="M187.035 121.938H199.192L202.449 125.195V137.678L199.192 140.935H187.035V121.938ZM197.375 137.787L198.757 136.405V126.475L197.375 125.093H190.727V137.793H197.375V137.787Z" fill="black"/>
<path d="M206.518 137.812V125.061L209.64 121.938H219.084L222.149 125.003V127.908H218.457V126.359L217.184 125.086H211.591L210.209 126.468V136.398L211.591 137.78H217.235L218.566 136.45V133.494H214.496V130.346H222.149V137.806L219.026 140.928H209.64L206.518 137.806V137.812Z" fill="black"/>
<path d="M226.219 121.938H239.949V125.061H229.911V129.866H239.162V132.93H229.911V137.812H239.949V140.935H226.219V121.938Z" fill="black"/>
<path d="M69.4277 165.363V152.612L72.5501 149.489H81.8276L84.8924 152.554V155.459H81.2006V153.91L79.9273 152.637H74.5016L73.1195 154.019V163.949L74.5016 165.331H79.9273L81.2006 164.058V162.51H84.8924V165.415L81.8276 168.479H72.5501L69.4277 165.357V165.363Z" fill="black"/>
<path d="M88.291 165.363V152.612L91.4134 149.489H101.184L104.306 152.612V165.363L101.184 168.486H91.4134L88.291 165.363ZM99.2257 165.338L100.608 163.956V154.026L99.2257 152.644H93.3648L91.9828 154.026V163.956L93.3648 165.338H99.2257Z" fill="black"/>
<path d="M108.645 149.489H111.952L120.417 162.382H120.469V149.489H124.026V168.486H120.718L112.253 155.625H112.202V168.486H108.645V149.489Z" fill="black"/>
<path d="M128.637 149.489H142.093V152.612H132.323V157.877H140.788V161H132.323V168.492H128.631V149.496L128.637 149.489Z" fill="black"/>
<path d="M145.357 149.489H159.088V152.612H149.049V157.417H158.301V160.482H149.049V165.363H159.088V168.486H145.357V149.489Z" fill="black"/>
<path d="M177.809 162.19V168.486H174.117V163.034L172.485 161.217H166.567V168.492H162.875V149.496H174.789L177.693 152.426V158.178L175.851 160.053L177.802 162.196L177.809 162.19ZM166.573 158.172H173.112L174.059 157.225V153.533L173.112 152.586H166.573V158.178V158.172Z" fill="black"/>
<path d="M182.287 149.489H196.018V152.612H185.979V157.417H195.231V160.482H185.979V165.363H196.018V168.486H182.287V149.489Z" fill="black"/>
<path d="M199.818 149.489H203.126L211.591 162.382H211.642V149.489H215.2V168.486H211.892L203.427 155.625H203.376V168.486H199.818V149.489Z" fill="black"/>
<path d="M219.545 165.363V152.612L222.667 149.489H231.945L235.01 152.554V155.459H231.318V153.91L230.044 152.637H224.619L223.237 154.019V163.949L224.619 165.331H230.044L231.318 164.058V162.51H235.01V165.415L231.945 168.479H222.667L219.545 165.357V165.363Z" fill="black"/>
<path d="M238.676 149.489H252.406V152.612H242.368V157.417H251.619V160.482H242.368V165.363H252.406V168.486H238.676V149.489Z" fill="black"/>
</g>
<defs>
<clipPath id="clip0_6305_3048">
<rect width="267" height="184.571" fill="white" transform="translate(0.5)"/>
</clipPath>
</defs>
</svg>
