<svg viewBox="0 0 1111 179" fill="none" xmlns="http://www.w3.org/2000/svg">
<path d="M642.35 0.582153H11.4257C5.39162 0.582153 0.5 5.47378 0.5 11.5079V167.216C0.5 173.25 5.39162 178.142 11.4257 178.142H642.35C648.384 178.142 653.276 173.25 653.276 167.216V11.5079C653.276 5.47378 648.384 0.582153 642.35 0.582153Z" fill="#F55219"/>
<path d="M733.573 0.582153H675.673C669.639 0.582153 664.747 5.47378 664.747 11.5079V167.216C664.747 173.25 669.639 178.142 675.673 178.142H733.573C739.607 178.142 744.499 173.25 744.499 167.216V11.5079C744.499 5.47378 739.607 0.582153 733.573 0.582153Z" fill="#F55219"/>
<path d="M211.959 98.6573V80.0771C211.959 78.3666 212.654 76.8165 213.776 75.694C214.899 74.5715 216.449 73.8766 218.159 73.8766H239.583C240.567 73.8766 241.507 73.5666 242.267 73.0214C243.026 72.4761 243.667 71.6636 243.988 70.7015L256.378 33.5411C256.848 32.1193 256.603 30.6654 255.865 29.5429C255.052 28.2921 253.641 27.4261 251.974 27.4261H230.806C229.812 27.4261 228.861 27.7469 228.091 28.3028C227.321 28.8587 226.712 29.6498 226.402 30.6012L213.391 69.6324C212.974 70.8939 212.173 71.9523 211.136 72.7006C210.109 73.4383 208.848 73.8659 207.512 73.8659H185.66C184.377 73.8659 183.212 73.3421 182.378 72.5082C181.534 71.6637 181.02 70.5091 181.02 69.2262V32.0872C181.02 30.5692 180.293 29.2222 179.171 28.3776C178.391 27.7896 177.428 27.4475 176.381 27.4475H154.711C153.471 27.4475 152.338 27.9393 151.504 28.7304C150.616 29.5749 150.061 30.7723 150.061 32.0979V146.669C150.061 147.834 150.488 148.892 151.194 149.705C152.049 150.688 153.3 151.308 154.7 151.308H176.37C177.653 151.308 178.818 150.784 179.652 149.951C180.486 149.117 181.01 147.951 181.01 146.669V109.508C181.01 108.418 181.384 107.424 182.015 106.632C182.87 105.553 184.185 104.869 185.66 104.869H207.512C208.826 104.869 210.067 105.285 211.082 106.002C212.141 106.75 212.953 107.819 213.381 109.102L226.391 148.133C226.69 149.02 227.236 149.78 227.941 150.325C228.743 150.945 229.737 151.308 230.796 151.308H251.963C253.545 151.308 254.903 150.528 255.726 149.384C256.549 148.24 256.87 146.701 256.367 145.204L243.977 108.044C243.592 106.889 242.79 105.97 241.764 105.424C241.101 105.072 240.353 104.869 239.573 104.869H218.149C216.438 104.869 214.888 104.174 213.766 103.051C212.643 101.929 211.948 100.378 211.948 98.668L211.959 98.6573Z" fill="black"/>
<path d="M134.549 53.757V32.0872C134.549 30.8043 134.025 29.6391 133.191 28.8052C132.357 27.9713 131.192 27.4475 129.909 27.4475H61.789C60.5596 27.4475 59.4478 27.9286 58.6139 28.6983C57.7052 29.5429 57.1493 30.7509 57.1493 32.0872V52.2175C57.1493 53.8318 56.5292 55.3071 55.5136 56.4082C54.3804 57.6376 52.7555 58.4074 50.9595 58.4074H30.8292C29.589 58.4074 28.4559 58.8991 27.622 59.6902C26.7347 60.5348 26.1895 61.7321 26.1895 63.0471V118.403C26.1895 118.98 26.2964 119.557 26.4995 120.081C26.7347 120.68 27.0875 121.225 27.5472 121.685L55.7916 149.929C56.1978 150.335 56.6789 150.667 57.2027 150.891C57.7907 151.148 58.4215 151.287 59.0843 151.287H129.931C131.331 151.287 132.582 150.667 133.437 149.694C134.143 148.882 134.581 147.812 134.581 146.647V124.977C134.581 123.577 133.961 122.326 132.977 121.471C132.165 120.765 131.096 120.338 129.931 120.338H61.8104C60.6344 120.338 59.5654 119.899 58.7422 119.183C57.78 118.328 57.16 117.088 57.16 115.698V64.6079C57.16 62.9722 57.7907 61.4862 58.8277 60.3851C59.9609 59.1771 61.5645 58.418 63.3498 58.418H129.92C131.181 58.418 132.325 57.9156 133.159 57.0924C133.993 56.2692 134.56 55.0719 134.56 53.7677L134.549 53.757Z" fill="black"/>
<path d="M376.07 53.757V32.0872C376.07 30.8043 375.546 29.6391 374.713 28.8052C373.879 27.9713 372.713 27.4475 371.431 27.4475H303.31C302.028 27.4475 300.862 27.9713 300.028 28.8052C299.195 29.6391 298.671 30.8043 298.671 32.0872V52.2175C298.671 53.9066 297.997 55.4354 296.896 56.5579C295.795 57.6804 294.202 58.418 292.47 58.418H272.34C271.057 58.418 269.892 58.9419 269.058 59.7757C268.213 60.6203 267.7 61.7749 267.7 63.0577V118.413C267.7 119.034 267.818 119.632 268.053 120.188C268.288 120.744 268.62 121.257 269.058 121.695L297.302 149.94C297.741 150.378 298.254 150.72 298.81 150.945C299.366 151.169 299.975 151.298 300.584 151.298H371.431C372.713 151.298 373.879 150.774 374.713 149.94C375.546 149.106 376.07 147.941 376.07 146.658V124.988C376.07 123.577 375.44 122.316 374.445 121.46C373.633 120.765 372.574 120.338 371.42 120.338H303.3C302.017 120.338 300.852 119.814 300.018 118.98C299.184 118.146 298.66 116.981 298.66 115.698V64.6079C298.66 62.8974 299.355 61.3473 300.477 60.2248C301.6 59.1022 303.15 58.4074 304.861 58.4074H371.431C372.649 58.4074 373.761 57.937 374.584 57.1673C375.504 56.3227 376.07 55.104 376.07 53.757Z" fill="black"/>
<path d="M484.44 27.4368H427.16C426.027 27.4368 425.001 27.8431 424.188 28.5059C423.162 29.3611 422.51 30.644 422.51 32.0765V52.2068C422.51 53.4897 422.125 54.6764 421.451 55.6706C420.339 57.3169 418.458 58.3967 416.32 58.3967H396.189C394.917 58.3967 393.752 58.9098 392.918 59.7437C392.084 60.5775 391.55 61.7535 391.55 63.0364V146.637C391.55 147.919 392.074 149.085 392.907 149.919C393.741 150.752 394.907 151.276 396.189 151.276H464.31C465.593 151.276 466.758 150.752 467.592 149.919C468.426 149.085 468.949 147.919 468.949 146.637V126.506C468.949 124.838 469.612 123.331 470.681 122.219C471.804 121.043 473.397 120.316 475.15 120.316H495.28C496.531 120.316 497.664 119.825 498.498 119.023C499.375 118.178 499.92 116.992 499.92 115.677V32.0872C499.92 30.8044 499.396 29.6391 498.562 28.8052C497.728 27.9714 496.563 27.4475 495.28 27.4475H484.44V27.4368ZM462.77 120.327H427.16C425.888 120.327 424.733 119.814 423.889 118.98C423.044 118.146 422.51 116.97 422.51 115.687V64.5972C422.51 62.8867 423.205 61.3366 424.327 60.2141C425.45 59.0916 427 58.3967 428.71 58.3967H464.32C465.593 58.3967 466.736 58.9098 467.581 59.733C468.426 60.5562 468.971 61.7428 468.971 63.0471V114.137C468.971 115.794 468.319 117.302 467.26 118.413C466.138 119.6 464.545 120.338 462.781 120.338L462.77 120.327Z" fill="black"/>
<path d="M590.896 27.4368H551.02C549.738 27.4368 548.572 27.9607 547.738 28.7945C546.894 29.6391 546.381 30.7937 546.381 32.0765V52.2068C546.381 53.7356 545.825 55.136 544.905 56.2265C543.772 57.5628 542.083 58.4074 540.191 58.4074H520.061C518.778 58.4074 517.612 58.9312 516.779 59.7651C515.945 60.5989 515.421 61.7642 515.421 63.0471V146.647C515.421 147.93 515.945 149.095 516.779 149.929C517.612 150.763 518.778 151.287 520.061 151.287H541.73C543.013 151.287 544.178 150.763 545.012 149.929C545.846 149.095 546.37 147.93 546.37 146.647V64.5972C546.37 62.7691 547.161 61.1228 548.423 59.9896C549.524 59.006 550.967 58.4074 552.56 58.4074H588.17C589.4 58.4074 590.522 58.8884 591.356 59.6688C592.254 60.5134 592.82 61.7214 592.82 63.0577V146.658C592.82 147.834 593.259 148.914 593.975 149.726C594.83 150.688 596.07 151.298 597.46 151.298H619.13C620.413 151.298 621.578 150.774 622.412 149.94C623.246 149.106 623.77 147.941 623.77 146.658V60.321C623.77 59.7009 623.652 59.1022 623.417 58.5463C623.182 57.9904 622.85 57.4773 622.412 57.039L594.168 28.7945C593.654 28.2814 593.034 27.8965 592.35 27.672C591.88 27.5117 591.388 27.4368 590.875 27.4368H590.896Z" fill="black"/>
<path d="M714.308 150.934L698.304 133.305H694.83L693.216 134.92V142.852L694.83 144.466H698.304V151.127H692.82L687.528 145.835V131.926L692.82 126.634H700.261L715.73 144.017H716.222V126.442H721.802V150.923H714.308V150.934Z" fill="black"/>
<path d="M716.126 118.135H693.216L687.539 112.459V97.2782L693.216 91.6015H716.126L721.802 97.2782V112.459L716.126 118.135ZM716.126 100.421L713.977 98.2724H695.375L693.226 100.421V109.326L695.375 111.475H713.977L716.126 109.326V100.421Z" fill="black"/>
<path d="M714.233 83.9578L698.229 66.329H694.755L693.141 67.9433V75.8757L694.755 77.49H698.229V84.1502H692.745L687.453 78.8584V64.9499L692.745 59.6581H700.186L715.655 77.041H716.147V59.4657H721.727V83.9471H714.233V83.9578Z" fill="black"/>
<path d="M715.355 36.8124V53.3614H708.652L687.453 38.1381V30.1629H709.679V26.0043H715.355V30.1629H721.716V36.8231H715.355V36.8124ZM709.871 36.5238H694.894V36.7162L709.187 46.8509H709.871V36.5238Z" fill="black"/>
<path d="M1099.56 0.582153H765.26C759.226 0.582153 754.334 5.47378 754.334 11.5079V167.216C754.334 173.25 759.226 178.142 765.26 178.142H1099.56C1105.6 178.142 1110.49 173.25 1110.49 167.216V11.5079C1110.49 5.47378 1105.6 0.582153 1099.56 0.582153Z" fill="#F55219"/>
<path d="M779.553 53.9921V32.6859L784.77 27.4689H800.271L805.392 32.5896V37.4432H799.223V34.856L797.096 32.7286H788.03L785.721 35.0378V51.6295L788.03 53.9387H797.096L799.223 51.8113V49.2241H805.392V54.0777L800.271 59.1984H784.77L779.553 53.9814V53.9921Z" fill="black"/>
<path d="M811.068 53.9921V32.6859L816.285 27.4689H832.61L837.827 32.6859V53.9921L832.61 59.2091H816.285L811.068 53.9921ZM829.338 53.9387L831.648 51.6295V35.0378L829.338 32.7286H819.546L817.237 35.0378V51.6295L819.546 53.9387H829.338Z" fill="black"/>
<path d="M845.075 27.4689H850.784L860.213 47.9627H860.298L869.77 27.4689H875.479V59.2091H869.535V39.8913H869.45L862.148 54.7619H858.342L851.083 39.8913H850.998V59.2091H845.054V27.4689H845.075Z" fill="black"/>
<path d="M883.208 27.4689H888.917L898.346 47.9627H898.431L907.903 27.4689H913.612V59.2091H907.668V39.8913H907.582L900.281 54.7619H896.475L889.216 39.8913H889.13V59.2091H883.187V27.4689H883.208Z" fill="black"/>
<path d="M920.882 53.9921V32.6859L926.099 27.4689H942.423L947.64 32.6859V53.9921L942.423 59.2091H926.099L920.882 53.9921ZM939.152 53.9387L941.461 51.6295V35.0378L939.152 32.7286H929.359L927.05 35.0378V51.6295L929.359 53.9387H939.152Z" fill="black"/>
<path d="M954.889 27.4689H960.416L974.559 49.0103H974.645V27.4689H980.589V59.2091H975.062L960.918 37.7211H960.833V59.2091H954.889V27.4689Z" fill="black"/>
<path d="M780.012 73.4917H786.18V86.7801H790.991L798.656 73.4917H805.594L796.304 89.3137L806.375 105.232H799.298L790.959 92.0398H786.202V105.232H780.033V73.4917H780.012Z" fill="black"/>
<path d="M811.336 73.4917H816.863L831.007 95.0332H831.092V73.4917H837.036V105.232H831.509L817.365 83.7439H817.28V105.232H811.336V73.4917Z" fill="black"/>
<path d="M844.306 100.015V78.7087L849.523 73.4917H865.847L871.064 78.7087V100.015L865.847 105.232H849.523L844.306 100.015ZM862.576 99.9722L864.885 97.663V81.0713L862.576 78.7621H852.783L850.474 81.0713V97.663L852.783 99.9722H862.576Z" fill="black"/>
<path d="M876.035 73.4917H882.246L886.095 95.8884H886.277L892.584 73.4917H897.213L903.382 95.8884H903.563L907.412 73.4917H913.623L907.048 105.232H901.286L894.99 82.9208H894.808L888.372 105.232H882.61L876.035 73.4917Z" fill="black"/>
<path d="M919.523 73.4917H925.692V100.015H941.557V105.232H919.523V73.4917Z" fill="black"/>
<path d="M946.764 73.4917H969.706V78.7087H952.932V86.7373H968.391V91.8581H952.932V100.015H969.706V105.232H946.764V73.4917Z" fill="black"/>
<path d="M976.056 73.4917H996.368L1001.81 78.9332V99.7905L996.368 105.232H976.056V73.4917ZM993.332 99.9722L995.641 97.663V81.0713L993.332 78.7621H982.224V99.9829H993.332V99.9722Z" fill="black"/>
<path d="M1008.61 100.015V78.7087L1013.83 73.4917H1029.6L1034.73 78.6125V83.466H1028.56V80.8789L1026.43 78.7515H1017.09L1014.78 81.0606V97.6524L1017.09 99.9615H1026.52L1028.74 97.7379V92.7988H1021.94V87.5391H1034.73V100.004L1029.51 105.221H1013.83L1008.61 100.004V100.015Z" fill="black"/>
<path d="M1041.52 73.4917H1064.47V78.7087H1047.69V86.7373H1063.15V91.8581H1047.69V100.015H1064.47V105.232H1041.52V73.4917Z" fill="black"/>
<path d="M779.553 146.049V124.742L784.77 119.525H800.271L805.392 124.646V129.5H799.223V126.912L797.096 124.785H788.03L785.721 127.094V143.686L788.03 145.995H797.096L799.223 143.868V141.281H805.392V146.134L800.271 151.255H784.77L779.553 146.038V146.049Z" fill="black"/>
<path d="M811.068 146.049V124.742L816.285 119.525H832.61L837.827 124.742V146.049L832.61 151.266H816.285L811.068 146.049ZM829.338 146.006L831.648 143.697V127.105L829.338 124.796H819.546L817.237 127.105V143.697L819.546 146.006H829.338Z" fill="black"/>
<path d="M845.075 119.525H850.602L864.746 141.067H864.831V119.525H870.775V151.266H865.248L851.105 129.778H851.019V151.266H845.075V119.525Z" fill="black"/>
<path d="M878.483 119.525H900.966V124.742H884.641V133.541H898.785V138.758H884.641V151.276H878.473V119.536L878.483 119.525Z" fill="black"/>
<path d="M906.417 119.525H929.359V124.742H912.585V132.771H928.044V137.892H912.585V146.049H929.359V151.266H906.417V119.525Z" fill="black"/>
<path d="M960.639 140.746V151.265H954.471V142.157L951.745 139.121H941.856V151.276H935.688V119.536H955.593L960.447 124.432V134.043L957.368 137.175L960.629 140.757L960.639 140.746ZM941.867 134.032H952.792L954.375 132.45V126.282L952.792 124.699H941.867V134.043V134.032Z" fill="black"/>
<path d="M968.123 119.525H991.065V124.742H974.292V132.771H989.75V137.892H974.292V146.049H991.065V151.266H968.123V119.525Z" fill="black"/>
<path d="M997.415 119.525H1002.94L1017.09 141.067H1017.17V119.525H1023.12V151.266H1017.59L1003.44 129.778H1003.36V151.266H997.415V119.525Z" fill="black"/>
<path d="M1030.37 146.049V124.742L1035.59 119.525H1051.09L1056.21 124.646V129.5H1050.04V126.912L1047.92 124.785H1038.85L1036.54 127.094V143.686L1038.85 145.995H1047.92L1050.04 143.868V141.281H1056.21V146.134L1051.09 151.255H1035.59L1030.37 146.038V146.049Z" fill="black"/>
<path d="M1062.34 119.525H1085.28V124.742H1068.51V132.771H1083.97V137.892H1068.51V146.049H1085.28V151.266H1062.34V119.525Z" fill="black"/>
</svg>
